# ProBuilder 4.0.4
# https://unity3d.com/unity/features/worldbuilding/probuilder
# 28/05/2019 15:38:24

mtllib ./Cube_(87).mtl
o Cube (87)

g Cube (87)
v -580 284 2
v -581.25 284 2
v -581.25 286.75 2
v -580.9 286.75 2
v -582.5 284 2
v -582.5 286.75 2
v -582.5 289.5 2
v -581.25 289.5 2
v -580.9 289.5 2
v -583.75 284 2
v -583.75 286.75 2
v -585 284 2
v -585 286.75 2
v -585 289.5 2
v -583.75 289.5 2
v -583.75 292.25 2
v -582.5 292.25 2
v -585 292.25 2
v -585 295 2
v -583.75 295 2
v -582.5 295 2
v -581.25 292.25 2
v -580.9 292.25 2
v -581.25 295 2
v -580 295 2
v -585 284 0.75
v -585 286.75 0.75
v -585 284 -0.5
v -585 286.75 -0.5
v -585 289.5 -0.5
v -585 289.5 0.75
v -585 284 -1.75
v -585 286.75 -1.75
v -585 284 -3
v -585 286.75 -3
v -585 289.5 -3
v -585 289.5 -1.75
v -585 292.25 -1.75
v -585 292.25 -0.5
v -585 292.25 -3
v -585 295 -3
v -585 295 -1.75
v -585 295 -0.5
v -585 292.25 0.75
v -585 295 0.75
v -582.5 284 -3
v -582.5 286.75 -3
v -583.75 286.75 -3
v -583.75 284 -3
v -582.5 289.5 -3
v -583.75 289.5 -3
v -580 284 -3
v -580.9 286.75 -3
v -581.25 286.75 -3
v -581.25 284 -3
v -580.9 289.5 -3
v -581.25 289.5 -3
v -580.9 292.25 -3
v -581.25 292.25 -3
v -580 295 -3
v -581.25 295 -3
v -582.5 295 -3
v -582.5 292.25 -3
v -583.75 292.25 -3
v -583.75 295 -3
v -580 284 -0.5
v -580.9 286.75 -0.5
v -580.9 286.75 -1.75
v -580 284 -1.75
v -580.9 289.5 -0.5
v -580.9 289.5 -1.75
v -580.9 286.75 0.75
v -580 284 0.75
v -580.9 289.5 0.75
v -580.9 292.25 0.75
v -580 295 0.75
v -580 295 -0.5
v -580.9 292.25 -0.5
v -580.9 292.25 -1.75
v -580 295 -1.75
v -582.5 295 -0.5
v -581.25 295 -0.5
v -581.25 295 0.75
v -582.5 295 0.75
v -583.75 295 -0.5
v -583.75 295 0.75
v -583.75 295 -1.75
v -582.5 295 -1.75
v -581.25 295 -1.75
v -582.5 284 -1.75
v -581.25 284 -1.75
v -582.5 284 -0.5
v -581.25 284 -0.5
v -583.75 284 -1.75
v -583.75 284 -0.5
v -583.75 284 0.75
v -582.5 284 0.75
v -581.25 284 0.75

vt -2 14
vt -3.25 14
vt -3.25 16.75
vt -2.900024 16.75
vt -4.5 13.99999
vt -4.5 16.74999
vt -4.5 19.49999
vt -3.25 19.5
vt -2.900024 19.5
vt -5.75 13.99999
vt -5.75 16.74999
vt -7 13.99998
vt -7 16.74998
vt -7 19.49998
vt -5.75 19.49999
vt -5.75 22.24999
vt -4.5 22.24999
vt -7 22.24998
vt -7 24.99998
vt -5.75 24.99999
vt -4.5 24.99999
vt -3.25 22.25
vt -2.900024 22.25
vt -3.25 25
vt -2 25
vt 2 13.99998
vt 0.75 13.99998
vt 0.75 16.74998
vt 2 16.74998
vt -0.5 13.99998
vt -0.5 16.74998
vt -0.5 19.49998
vt 0.75 19.49998
vt 2 19.49998
vt -1.75 13.99998
vt -1.75 16.74998
vt -3 13.99998
vt -3 16.74998
vt -3 19.49998
vt -1.75 19.49998
vt -1.75 22.24998
vt -0.5 22.24998
vt -3 22.24998
vt -3 24.99998
vt -1.75 24.99998
vt -0.5 24.99998
vt 0.75 22.24998
vt 2 22.24998
vt 0.75 24.99998
vt 2 24.99998
vt 4.5 13.99999
vt 4.5 16.74999
vt 5.75 16.74999
vt 5.75 13.99999
vt 4.5 19.49999
vt 5.75 19.49999
vt 7 19.49998
vt 7 16.74998
vt 7 13.99998
vt 2 14
vt 2.900024 16.75
vt 3.25 16.75
vt 3.25 14
vt 2.900024 19.5
vt 3.25 19.5
vt 2.900024 22.25
vt 3.25 22.25
vt 2 25
vt 3.25 25
vt 4.5 24.99999
vt 4.5 22.24999
vt 5.75 22.24999
vt 5.75 24.99999
vt 7 24.99998
vt 7 22.24998
vt 0.5 14
vt 0.5 16.75
vt 1.75 16.75
vt 1.75 14
vt 0.5 19.5
vt 1.75 19.5
vt 3 19.5
vt 3 16.75
vt 3 14
vt -2 16.75
vt -0.75 16.75
vt -0.75 14
vt -2 19.5
vt -0.75 19.5
vt -2 22.25
vt -0.75 22.25
vt -0.75 25
vt 0.5 25
vt 0.5 22.25
vt 1.75 22.25
vt 1.75 25
vt 3 25
vt 3 22.25
vt 4.499924 -0.5
vt 3.249924 -0.5
vt 3.249924 0.75
vt 4.499924 0.75
vt 1.999924 -0.5
vt 1.999924 0.75
vt 1.999924 2
vt 3.249924 2
vt 4.499924 2
vt 6.999924 -0.5
vt 5.749924 -0.5
vt 5.749924 0.75
vt 6.999924 0.75
vt 5.749924 2
vt 6.999924 2
vt 6.999924 -3
vt 5.749924 -3
vt 5.749924 -1.75
vt 6.999924 -1.75
vt 4.499924 -3
vt 4.499924 -1.75
vt 3.249924 -3
vt 3.249924 -1.75
vt 1.999924 -3
vt 1.999924 -1.75
vt -4.499957 -3
vt -4.499957 -1.75
vt -3.249957 -1.75
vt -3.249957 -3
vt -4.499957 -0.5
vt -3.249957 -0.5
vt -1.999957 -0.5
vt -1.999957 -1.75
vt -1.999957 -3
vt -6.999957 -3
vt -6.999957 -1.75
vt -5.749957 -1.75
vt -5.749957 -3
vt -6.999957 -0.5
vt -5.749957 -0.5
vt -6.999957 0.75
vt -5.749957 0.75
vt -6.999957 2
vt -5.749957 2
vt -4.499957 2
vt -4.499957 0.75
vt -3.249957 0.75
vt -3.249957 2
vt -1.999957 2
vt -1.999957 0.75

vn 0 0 1
vn -1 0 0
vn 0 0 -1
vn 0.9503946 0.3110467 0
vn 1 0 0
vn 0.9503946 -0.3110467 0
vn -3.051758E-06 1 0
vn 3.051758E-06 -1 0

g Cube (87)
usemtl TrapBlockOutMaterial
f 4/4/1 3/3/1 2/2/1 1/1/1
f 3/3/1 6/6/1 5/5/1 2/2/1
f 8/8/1 7/7/1 6/6/1 3/3/1
f 9/9/1 8/8/1 3/3/1 4/4/1
f 6/6/1 11/11/1 10/10/1 5/5/1
f 11/11/1 13/13/1 12/12/1 10/10/1
f 15/15/1 14/14/1 13/13/1 11/11/1
f 7/7/1 15/15/1 11/11/1 6/6/1
f 17/17/1 16/16/1 15/15/1 7/7/1
f 16/16/1 18/18/1 14/14/1 15/15/1
f 20/20/1 19/19/1 18/18/1 16/16/1
f 21/21/1 20/20/1 16/16/1 17/17/1
f 23/23/1 22/22/1 8/8/1 9/9/1
f 22/22/1 17/17/1 7/7/1 8/8/1
f 24/24/1 21/21/1 17/17/1 22/22/1
f 25/25/1 24/24/1 22/22/1 23/23/1
f 13/29/2 27/28/2 26/27/2 12/26/2
f 27/28/2 29/31/2 28/30/2 26/27/2
f 31/33/2 30/32/2 29/31/2 27/28/2
f 14/34/2 31/33/2 27/28/2 13/29/2
f 29/31/2 33/36/2 32/35/2 28/30/2
f 33/36/2 35/38/2 34/37/2 32/35/2
f 37/40/2 36/39/2 35/38/2 33/36/2
f 30/32/2 37/40/2 33/36/2 29/31/2
f 39/42/2 38/41/2 37/40/2 30/32/2
f 38/41/2 40/43/2 36/39/2 37/40/2
f 42/45/2 41/44/2 40/43/2 38/41/2
f 43/46/2 42/45/2 38/41/2 39/42/2
f 18/48/2 44/47/2 31/33/2 14/34/2
f 44/47/2 39/42/2 30/32/2 31/33/2
f 45/49/2 43/46/2 39/42/2 44/47/2
f 19/50/2 45/49/2 44/47/2 18/48/2
f 49/54/3 48/53/3 47/52/3 46/51/3
f 48/53/3 51/56/3 50/55/3 47/52/3
f 35/58/3 36/57/3 51/56/3 48/53/3
f 34/59/3 35/58/3 48/53/3 49/54/3
f 55/63/3 54/62/3 53/61/3 52/60/3
f 54/62/3 57/65/3 56/64/3 53/61/3
f 47/52/3 50/55/3 57/65/3 54/62/3
f 46/51/3 47/52/3 54/62/3 55/63/3
f 57/65/3 59/67/3 58/66/3 56/64/3
f 59/67/3 61/69/3 60/68/3 58/66/3
f 63/71/3 62/70/3 61/69/3 59/67/3
f 50/55/3 63/71/3 59/67/3 57/65/3
f 51/56/3 64/72/3 63/71/3 50/55/3
f 64/72/3 65/73/3 62/70/3 63/71/3
f 40/75/3 41/74/3 65/73/3 64/72/3
f 36/57/3 40/75/3 64/72/3 51/56/3
f 69/79/4 68/78/4 67/77/4 66/76/4
f 68/78/5 71/81/5 70/80/5 67/77/5
f 53/83/5 56/82/5 71/81/5 68/78/5
f 52/84/4 53/83/4 68/78/4 69/79/4
f 73/87/4 72/86/4 4/85/4 1/1/4
f 72/86/5 74/89/5 9/88/5 4/85/5
f 67/77/5 70/80/5 74/89/5 72/86/5
f 66/76/4 67/77/4 72/86/4 73/87/4
f 74/89/5 75/91/5 23/90/5 9/88/5
f 75/91/6 76/92/6 25/25/6 23/90/6
f 78/94/6 77/93/6 76/92/6 75/91/6
f 70/80/5 78/94/5 75/91/5 74/89/5
f 71/81/5 79/95/5 78/94/5 70/80/5
f 79/95/6 80/96/6 77/93/6 78/94/6
f 58/98/6 60/97/6 80/96/6 79/95/6
f 56/82/5 58/98/5 79/95/5 71/81/5
f 84/102/7 83/101/7 82/100/7 81/99/7
f 83/101/7 76/104/7 77/103/7 82/100/7
f 24/106/7 25/105/7 76/104/7 83/101/7
f 21/107/7 24/106/7 83/101/7 84/102/7
f 45/111/7 86/110/7 85/109/7 43/108/7
f 86/110/7 84/102/7 81/99/7 85/109/7
f 20/112/7 21/107/7 84/102/7 86/110/7
f 19/113/7 20/112/7 86/110/7 45/111/7
f 42/117/7 87/116/7 65/115/7 41/114/7
f 87/116/7 88/119/7 62/118/7 65/115/7
f 85/109/7 81/99/7 88/119/7 87/116/7
f 43/108/7 85/109/7 87/116/7 42/117/7
f 88/119/7 89/121/7 61/120/7 62/118/7
f 89/121/7 80/123/7 60/122/7 61/120/7
f 82/100/7 77/103/7 80/123/7 89/121/7
f 81/99/7 82/100/7 89/121/7 88/119/7
f 55/127/8 91/126/8 90/125/8 46/124/8
f 91/126/8 93/129/8 92/128/8 90/125/8
f 69/131/8 66/130/8 93/129/8 91/126/8
f 52/132/8 69/131/8 91/126/8 55/127/8
f 49/136/8 94/135/8 32/134/8 34/133/8
f 94/135/8 95/138/8 28/137/8 32/134/8
f 90/125/8 92/128/8 95/138/8 94/135/8
f 46/124/8 90/125/8 94/135/8 49/136/8
f 95/138/8 96/140/8 26/139/8 28/137/8
f 96/140/8 10/142/8 12/141/8 26/139/8
f 97/144/8 5/143/8 10/142/8 96/140/8
f 92/128/8 97/144/8 96/140/8 95/138/8
f 93/129/8 98/145/8 97/144/8 92/128/8
f 98/145/8 2/146/8 5/143/8 97/144/8
f 73/148/8 1/147/8 2/146/8 98/145/8
f 66/130/8 73/148/8 98/145/8 93/129/8

