# ProBuilder 4.0.4
# https://unity3d.com/unity/features/worldbuilding/probuilder
# 28/05/2019 15:38:24

mtllib ./Cube_(8).mtl
o Cube (8)

g Cube (8)
v -151 28 2
v -155 28 2
v -151 36 2
v -155 36 2
v -155 28 -3
v -155 36 -3
v -151 28 -3
v -151 36 -3

vt -13 -6
vt -17 -6
vt -13 2
vt -17 2
vt 2 -6
vt -3 -6
vt 2 2
vt -3 2
vt 17 -6
vt 13 -6
vt 17 2
vt 13 2
vt 3 -6
vt -2 -6
vt 3 2
vt -2 2
vt 13 -3
vt 17 -3
vt -13 -3
vt -17 -3

vn 0 0 1
vn -1 0 0
vn 0 0 -1
vn 1 0 0
vn 0 1 0
vn 0 -1 0

g Cube (8)
usemtl MetricsProbuilder
f 3/3/1 4/4/1 2/2/1 1/1/1
f 4/7/2 6/8/2 5/6/2 2/5/2
f 6/11/3 8/12/3 7/10/3 5/9/3
f 8/15/4 3/16/4 1/14/4 7/13/4
f 8/17/5 6/18/5 4/11/5 3/12/5
f 1/3/6 2/4/6 5/20/6 7/19/6

