# ProBuilder 4.0.4
# https://unity3d.com/unity/features/worldbuilding/probuilder
# 28/05/2019 15:38:24

mtllib ./Cube_(75).mtl
o Cube (75)

g Cube (75)
v -525 293 2
v -534.5 296 2
v -525 296 2
v -534.5 299 2
v -534.5 296 -3
v -534.5 299 -3
v -525 293 -3
v -525 296 -3

vt -2 8
vt -11.5 11
vt -2 11
vt -11.5 14
vt 2 11
vt -3 11
vt 2 14
vt -3 14
vt 11.5 11
vt 2 8
vt 11.5 14
vt 3 8
vt 3 11
vt 5.21961 2
vt 15.18204 2
vt 5.21961 -3
vt 15.18204 -3
vt -4.316216 -3
vt -14.27865 -3
vt -4.316216 2
vt -14.27865 2

vn 0 0 1
vn -1 0 0
vn 0 0 -1
vn 1 0 0
vn 0.3011314 0.9535827 0
vn -0.3011314 -0.9535827 0

g Cube (75)
usemtl TrapBlockOutMaterial
f 3/3/1 4/4/1 2/2/1 1/1/1
f 4/7/2 6/8/2 5/6/2 2/5/2
f 6/11/3 8/5/3 7/10/3 5/9/3
f 8/13/4 3/3/4 1/1/4 7/12/4
f 8/16/5 6/17/5 4/15/5 3/14/5
f 1/20/6 2/21/6 5/19/6 7/18/6

