# ProBuilder 4.0.4
# https://unity3d.com/unity/features/worldbuilding/probuilder
# 28/05/2019 15:38:24

mtllib ./Cube_(93).mtl
o Cube (93)

g Cube (93)
v -604 298 2
v -606 298 2
v -604 304 2
v -606 304 2
v -606 298 -3
v -606 304 -3
v -604 298 -3
v -604 304 -3

vt 0 9
vt -2 9
vt 0 15
vt -2 15
vt 2 9
vt -3 9
vt 2 15
vt -3 15
vt 3 9
vt 3 15
vt 0 2
vt 2 2
vt 0 -3
vt 2 -3
vt -2 -3
vt -2 2

vn 0 0 1
vn -1 0 0
vn 0 0 -1
vn 1 0 0
vn 0 1 0
vn 0 -1 0

g Cube (93)
usemtl MetricsProbuilder
f 3/3/1 4/4/1 2/2/1 1/1/1
f 4/7/2 6/8/2 5/6/2 2/5/2
f 6/7/3 8/3/3 7/1/3 5/5/3
f 8/10/4 3/4/4 1/2/4 7/9/4
f 8/13/5 6/14/5 4/12/5 3/11/5
f 1/11/6 2/16/6 5/15/6 7/13/6

