# ProBuilder 4.0.4
# https://unity3d.com/unity/features/worldbuilding/probuilder
# 28/05/2019 15:38:24

mtllib ./Cube_(73).mtl
o Cube (73)

g Cube (73)
v -369 211 2
v -370 211 2
v -369 218 2
v -370 218 2
v -370 211 -3
v -370 218 -3
v -369 211 -3
v -369 218 -3

vt -11 22
vt -12 22
vt -11 29
vt -12 29
vt 2 22
vt -3 22
vt 2 29
vt -3 29
vt 12 22
vt 11 22
vt 12 29
vt 11 29
vt 3 22
vt -2 22
vt 3 29
vt -2 29
vt 11 2
vt 12 2
vt 11 -3
vt 12 -3
vt -11 -3
vt -12 -3
vt -11 2
vt -12 2

vn 0 0 1
vn -1 0 0
vn 0 0 -1
vn 1 0 0
vn 0 1 0
vn 0 -1 0

g Cube (73)
usemtl MetricsProbuilder
f 3/3/1 4/4/1 2/2/1 1/1/1
f 4/7/2 6/8/2 5/6/2 2/5/2
f 6/11/3 8/12/3 7/10/3 5/9/3
f 8/15/4 3/16/4 1/14/4 7/13/4
f 8/19/5 6/20/5 4/18/5 3/17/5
f 1/23/6 2/24/6 5/22/6 7/21/6

