# ProBuilder 4.0.4
# https://unity3d.com/unity/features/worldbuilding/probuilder
# 28/05/2019 15:38:24

mtllib ./Cube_(41).mtl
o Cube (41)

g Cube (41)
v -461.9 233.6 2
v -463.9 235.6 2
v -461.9 239.6 2
v -463.9 241.6 2
v -463.9 235.6 -3
v -463.9 241.6 -3
v -461.9 233.6 -3
v -461.9 239.6 -3

vt -1 10
vt -3 12
vt -1 16
vt -3 18
vt 2 12
vt 2 18
vt 3 12
vt 1 10
vt 3 18
vt 1 16
vt 3 10
vt -2 10
vt 3 16
vt -2 16
vt 12.02081 2
vt 14.84924 2
vt 12.02081 -3
vt 14.84924 -3
vt -7.778174 -3
vt -10.6066 -3
vt -7.778174 2
vt -10.6066 2

vn 0 0 1
vn -1 0 0
vn 0 0 -1
vn 1 0 0
vn 0.7071068 0.7071068 0
vn -0.7071068 -0.7071068 0

g Cube (41)
usemtl TrapBlockOutMaterial
f 3/3/1 4/4/1 2/2/1 1/1/1
f 4/6/2 6/4/2 5/2/2 2/5/2
f 6/9/3 8/10/3 7/8/3 5/7/3
f 8/13/4 3/14/4 1/12/4 7/11/4
f 8/17/5 6/18/5 4/16/5 3/15/5
f 1/21/6 2/22/6 5/20/6 7/19/6

