# ProBuilder 4.0.4
# https://unity3d.com/unity/features/worldbuilding/probuilder
# 28/05/2019 15:38:24

mtllib ./Cube_(86).mtl
o Cube (86)

g Cube (86)
v -580 267 2
v -585 267 2
v -580 278 2
v -585 278 2
v -585 267 -3
v -585 278 -3
v -580 267 -3
v -580 278 -3

vt -2 14
vt -7 13.99998
vt -2 24.99998
vt -7 24.99998
vt 2 13.99998
vt -3 13.99998
vt 2 24.99998
vt -3 24.99998
vt 7 13.99998
vt 2 14
vt 7 24.99998
vt 3 14
vt 3 24.99998
vt 2 2
vt 7 2
vt 2 -3
vt 7 -3
vt -1.999957 -3
vt -6.999957 -3
vt -1.999957 2
vt -6.999957 2

vn 0 0 1
vn -1 0 0
vn 0 0 -1
vn 1 0 0
vn 0 1 0
vn 3.051758E-06 -1 0

g Cube (86)
usemtl TrapBlockOutMaterial
f 3/3/1 4/4/1 2/2/1 1/1/1
f 4/7/2 6/8/2 5/6/2 2/5/2
f 6/11/3 8/7/3 7/10/3 5/9/3
f 8/13/4 3/3/4 1/1/4 7/12/4
f 8/16/5 6/17/5 4/15/5 3/14/5
f 1/20/6 2/21/6 5/19/6 7/18/6

