# ProBuilder 4.0.4
# https://unity3d.com/unity/features/worldbuilding/probuilder
# 28/05/2019 15:38:24

mtllib ./Cube_(56).mtl
o Cube (56)

g Cube (56)
v -516 290 2
v -520.75 290 2
v -520.75 291.45 2
v -516 291.45 2
v -525 292.9 2
v -525 293.9 2
v -525 295.9 2
v -520.75 292.9 2
v -516 292.9 2
v -525 292.9 -0.5
v -525 293.9 -0.5
v -525 292.9 -3
v -525 293.9 -3
v -525 295.9 -3
v -525 295.9 -0.5
v -520.75 290 -3
v -520.75 291.45 -3
v -516 290 -3
v -516 291.45 -3
v -516 292.9 -3
v -520.75 292.9 -3
v -516 290 -0.5
v -516 291.45 -0.5
v -516 292.9 -0.5
v -520.75 292.9 -0.5
v -520.75 290 -0.5

vt -2 8
vt -6.75 8
vt -6.75 9.449997
vt -2 9.449997
vt -11 10.89999
vt -11 11.89999
vt -11 13.89999
vt -6.75 10.89999
vt -2 10.89999
vt 2 10.89999
vt -0.5 10.89999
vt -0.5 11.89999
vt 2 11.89999
vt -3 10.89999
vt -3 11.89999
vt -3 13.89999
vt -0.5 13.89999
vt 2 13.89999
vt 11 10.89999
vt 6.75 8
vt 6.75 9.449997
vt 11 11.89999
vt 2 8
vt 2 9.449997
vt 6.75 10.89999
vt 11 13.89999
vt 3 8
vt 0.5 8
vt 0.5 9.449997
vt 3 9.449997
vt 0.5 10.89999
vt 3 10.89999
vt 5.203713 2
vt 9.731149 2
vt 9.731149 -0.5
vt 5.203713 -0.5
vt 14.68956 2
vt 14.68956 -0.5
vt 14.68956 -3
vt 9.731149 -3
vt 5.203713 -3
vt -4.270543 -3
vt -8.809244 -3
vt -8.809244 -0.5
vt -4.270543 -0.5
vt -13.72551 -3
vt -13.72551 -0.5
vt -13.72551 2
vt -8.809244 2
vt -4.270543 2

vn 0 0 1
vn -1 0 0
vn 0 0 -1
vn 1 0 0
vn 0 1 0
vn 0.5766832 0.8169679 0
vn 0 -1 0
vn -0.5636376 -0.8260223 0

g Cube (56)
usemtl TrapBlockOutMaterial
f 4/4/1 3/3/1 2/2/1 1/1/1
f 3/3/1 6/6/1 5/5/1 2/2/1
f 8/8/1 7/7/1 6/6/1 3/3/1
f 9/9/1 8/8/1 3/3/1 4/4/1
f 6/13/2 11/12/2 10/11/2 5/10/2
f 11/12/2 13/15/2 12/14/2 10/11/2
f 15/17/2 14/16/2 13/15/2 11/12/2
f 7/18/2 15/17/2 11/12/2 6/13/2
f 12/19/3 13/22/3 17/21/3 16/20/3
f 16/20/3 17/21/3 19/24/3 18/23/3
f 17/21/3 21/25/3 20/10/3 19/24/3
f 13/22/3 14/26/3 21/25/3 17/21/3
f 18/27/4 19/30/4 23/29/4 22/28/4
f 22/28/4 23/29/4 4/4/4 1/1/4
f 23/29/4 24/31/4 9/9/4 4/4/4
f 19/30/4 20/32/4 24/31/4 23/29/4
f 8/34/5 9/33/5 24/36/5 25/35/5
f 7/37/6 8/34/6 25/35/6 15/38/6
f 15/38/6 25/35/6 21/40/6 14/39/6
f 25/35/5 24/36/5 20/41/5 21/40/5
f 18/42/7 22/45/7 26/44/7 16/43/7
f 16/43/8 26/44/8 10/47/8 12/46/8
f 26/44/8 2/49/8 5/48/8 10/47/8
f 22/45/7 1/50/7 2/49/7 26/44/7

