# ProBuilder 4.0.4
# https://unity3d.com/unity/features/worldbuilding/probuilder
# 28/05/2019 15:38:23

mtllib ./Cube_(97).mtl
o Cube (97)

g Cube (97)
v -612 289 2
v -619 289 2
v -612 291 2
v -619 291 2
v -619 289 -3
v -619 291 -3
v -612 289 -3
v -612 291 -3

vt 0 13
vt -7 13
vt 0 15
vt -7 15
vt 2 13
vt -3 13
vt 2 15
vt -3 15
vt 7 13
vt 7 15
vt 3 13
vt -2 13
vt 3 15
vt -2 15
vt 0 2
vt 7 2
vt 0 -3
vt 7 -3
vt -7 -3
vt -7 2

vn 0 0 1
vn -1 0 0
vn 0 0 -1
vn 1 0 0
vn 0 1 0
vn 0 -1 0

g Cube (97)
usemtl MetricsProbuilder
f 3/3/1 4/4/1 2/2/1 1/1/1
f 4/7/2 6/8/2 5/6/2 2/5/2
f 6/10/3 8/3/3 7/1/3 5/9/3
f 8/13/4 3/14/4 1/12/4 7/11/4
f 8/17/5 6/18/5 4/16/5 3/15/5
f 1/15/6 2/20/6 5/19/6 7/17/6

