# ProBuilder 4.0.4
# https://unity3d.com/unity/features/worldbuilding/probuilder
# 28/05/2019 15:38:24

mtllib ./Cube_(121).mtl
o Cube (121)

g Cube (121)
v -709 462 2
v -711.5 462 2
v -711.5 464.5 2
v -708 464.5 2
v -714 462 2
v -715 464.5 2
v -715 467 2
v -711.5 467 2
v -708 467 2
v -714 462 -0.5
v -715 464.5 -0.5
v -714 462 -3
v -715 464.5 -3
v -715 467 -3
v -715 467 -0.5
v -711.5 462 -3
v -711.5 464.5 -3
v -709 462 -3
v -708 464.5 -3
v -708 467 -3
v -711.5 467 -3
v -709 462 -0.5
v -708 464.5 -0.5
v -708 467 -0.5
v -711.5 467 -0.5
v -711.5 462 -0.5

vt -1 10
vt -3.5 10
vt -3.5 12.5
vt 0 12.5
vt -6 10
vt -7 12.5
vt -7 15
vt -3.5 15
vt 0 15
vt 2 10.95421
vt -0.5 10.95421
vt -0.5 13.59821
vt 2 13.59821
vt -3 10.95421
vt -3 13.59821
vt -3 16.0531
vt -0.5 16.0531
vt 2 16.0531
vt 6 10
vt 3.5 10
vt 3.5 12.5
vt 7 12.5
vt 1 10
vt 3.5 15
vt 7 15
vt 3 9.630456
vt 0.5 9.630456
vt 0.5 12.27445
vt 3 12.27445
vt -2 9.630456
vt -2 12.27445
vt -2 14.72935
vt 0.5 14.72935
vt 3 14.72935
vt 0 2
vt 3.5 2
vt 3.5 -0.5
vt 0 -0.5
vt 7 2
vt 7 -0.5
vt 7 -3
vt 3.5 -3
vt 0 -3
vt -1 -3
vt -3.5 -3
vt -3.5 -0.5
vt -1 -0.5
vt -6 -3
vt -6 -0.5
vt -6 2
vt -3.5 2
vt -1 2

vn 0 0 1
vn -0.9284767 -0.3713907 0
vn -1 0 0
vn 0 0 -1
vn 0.9284767 -0.3713907 0
vn 1 0 0
vn 0 1 0
vn 0 -1 0

g Cube (121)
usemtl MetricsProbuilder
f 4/4/1 3/3/1 2/2/1 1/1/1
f 3/3/1 6/6/1 5/5/1 2/2/1
f 8/8/1 7/7/1 6/6/1 3/3/1
f 9/9/1 8/8/1 3/3/1 4/4/1
f 6/13/2 11/12/2 10/11/2 5/10/2
f 11/12/2 13/15/2 12/14/2 10/11/2
f 15/17/3 14/16/3 13/15/3 11/12/3
f 7/18/3 15/17/3 11/12/3 6/13/3
f 12/19/4 13/22/4 17/21/4 16/20/4
f 16/20/4 17/21/4 19/4/4 18/23/4
f 17/21/4 21/24/4 20/9/4 19/4/4
f 13/22/4 14/25/4 21/24/4 17/21/4
f 18/26/5 19/29/5 23/28/5 22/27/5
f 22/27/5 23/28/5 4/31/5 1/30/5
f 23/28/6 24/33/6 9/32/6 4/31/6
f 19/29/6 20/34/6 24/33/6 23/28/6
f 8/36/7 9/35/7 24/38/7 25/37/7
f 7/39/7 8/36/7 25/37/7 15/40/7
f 15/40/7 25/37/7 21/42/7 14/41/7
f 25/37/7 24/38/7 20/43/7 21/42/7
f 18/44/8 22/47/8 26/46/8 16/45/8
f 16/45/8 26/46/8 10/49/8 12/48/8
f 26/46/8 2/51/8 5/50/8 10/49/8
f 22/47/8 1/52/8 2/51/8 26/46/8

