# ProBuilder 4.0.4
# https://unity3d.com/unity/features/worldbuilding/probuilder
# 28/05/2019 15:38:24

mtllib ./Cube_(107).mtl
o Cube (107)

g Cube (107)
v -636 335 2
v -638 335 2
v -636 361 2
v -638 361 2
v -638 335 -3
v -638 361 -3
v -636 335 -3
v -636 361 -3

vt -3 5
vt -5 5
vt -3 31
vt -5 31
vt 2 5
vt 2 31
vt 5 5
vt 3 5
vt 5 31
vt 3 31
vt -2 5
vt -2 31
vt 3 2
vt 5 2
vt 3 -3
vt 5 -3
vt -3 -3
vt -5 -3
vt -3 2
vt -5 2

vn 0 0 1
vn -1 0 0
vn 0 0 -1
vn 1 0 0
vn 0 1 0
vn 0 -1 0

g Cube (107)
usemtl TrapBlockOutMaterial
f 3/3/1 4/4/1 2/2/1 1/1/1
f 4/6/2 6/3/2 5/1/2 2/5/2
f 6/9/3 8/10/3 7/8/3 5/7/3
f 8/10/4 3/12/4 1/11/4 7/8/4
f 8/15/5 6/16/5 4/14/5 3/13/5
f 1/19/6 2/20/6 5/18/6 7/17/6

