# ProBuilder 4.0.4
# https://unity3d.com/unity/features/worldbuilding/probuilder
# 28/05/2019 15:38:24

mtllib ./Cube_(82).mtl
o Cube (82)

g Cube (82)
v -567.3 282.9 2
v -568.25 282 2
v -568.25 283 2
v -567 283.6 2
v -569.5 282 2
v -569.5 283 2
v -569.5 284 2
v -568.25 284 2
v -567 284 2
v -570.75 282 2
v -570.75 283 2
v -571.6 282.8 2
v -572 283.5 2
v -572 284 2
v -570.75 284 2
v -570.75 285 2
v -569.5 285 2
v -572 285 2
v -572 286 2
v -570.75 286 2
v -569.5 286 2
v -568.25 285 2
v -567 285 2
v -568.25 286 2
v -567 286 2
v -571.6 282.8 0.75
v -572 283.5 0.75
v -571.6 282.8 -0.5
v -572 283.5 -0.5
v -572 284 -0.5
v -572 284 0.75
v -571.6 282.8 -1.75
v -572 283.5 -1.75
v -571.6 282.8 -3
v -572 283.5 -3
v -572 284 -3
v -572 284 -1.75
v -572 285 -1.75
v -572 285 -0.5
v -572 285 -3
v -572 286 -3
v -572 286 -1.75
v -572 286 -0.5
v -572 285 0.75
v -572 286 0.75
v -569.5 282 -3
v -569.5 283 -3
v -570.75 283 -3
v -570.75 282 -3
v -569.5 284 -3
v -570.75 284 -3
v -567.3 282.9 -3
v -567 283.6 -3
v -568.25 283 -3
v -568.25 282 -3
v -567 284 -3
v -568.25 284 -3
v -567 285 -3
v -568.25 285 -3
v -567 286 -3
v -568.25 286 -3
v -569.5 286 -3
v -569.5 285 -3
v -570.75 285 -3
v -570.75 286 -3
v -567.3 282.9 -0.5
v -567 283.6 -0.5
v -567 283.6 -1.75
v -567.3 282.9 -1.75
v -567 284 -0.5
v -567 284 -1.75
v -567 283.6 0.75
v -567.3 282.9 0.75
v -567 284 0.75
v -567 285 0.75
v -567 286 0.75
v -567 286 -0.5
v -567 285 -0.5
v -567 285 -1.75
v -567 286 -1.75
v -569.5 286 -0.5
v -568.25 286 -0.5
v -568.25 286 0.75
v -569.5 286 0.75
v -570.75 286 -0.5
v -570.75 286 0.75
v -570.75 286 -1.75
v -569.5 286 -1.75
v -568.25 286 -1.75
v -569.5 282 -1.75
v -568.25 282 -1.75
v -569.5 282 -0.5
v -568.25 282 -0.5
v -570.75 282 -1.75
v -570.75 282 -0.5
v -570.75 282 0.75
v -569.5 282 0.75
v -568.25 282 0.75

vt -2.299988 14.89999
vt -3.25 14
vt -3.25 15
vt -2 15.60001
vt -4.5 14
vt -4.5 15
vt -4.5 16
vt -3.25 16
vt -2 16
vt -5.75 14
vt -5.75 15
vt -6.600037 14.80002
vt -7 15.5
vt -7 16
vt -5.75 16
vt -5.75 17
vt -4.5 17
vt -7 17
vt -7 18
vt -5.75 18
vt -4.5 18
vt -3.25 17
vt -2 17
vt -3.25 18
vt -2 18
vt 2 15.51937
vt 0.75 15.51937
vt 0.75 16.26455
vt 2 16.26455
vt -0.5 15.51937
vt -0.5 16.26455
vt -0.5 16.76049
vt 0.75 16.76049
vt 2 16.76049
vt -1.75 15.51937
vt -1.75 16.26455
vt -3 15.51937
vt -3 16.26455
vt -3 16.76049
vt -1.75 16.76049
vt -1.75 17.75236
vt -0.5 17.75236
vt -3 17.75236
vt -3 18.74424
vt -1.75 18.74424
vt -0.5 18.74424
vt 0.75 17.75236
vt 2 17.75236
vt 0.75 18.74424
vt 2 18.74424
vt 4.5 14
vt 4.5 15
vt 5.75 15
vt 5.75 14
vt 4.5 16
vt 5.75 16
vt 7 16
vt 7 15.5
vt 6.600037 14.80002
vt 2.299988 14.89999
vt 2 15.60001
vt 3.25 15
vt 3.25 14
vt 2 16
vt 3.25 16
vt 2 17
vt 3.25 17
vt 2 18
vt 3.25 18
vt 4.5 18
vt 4.5 17
vt 5.75 17
vt 5.75 18
vt 7 18
vt 7 17
vt 0.5 14.5953
vt 0.5 15.3218
vt 1.75 15.3218
vt 1.75 14.5953
vt 0.5 15.71979
vt 1.75 15.71979
vt 3 15.71979
vt 3 15.3218
vt 3 14.5953
vt -2 14.5953
vt -2 15.3218
vt -0.75 15.3218
vt -0.75 14.5953
vt -2 15.71979
vt -0.75 15.71979
vt -2 16.71478
vt -0.75 16.71478
vt -2 17.70976
vt -0.75 17.70976
vt 0.5 17.70976
vt 0.5 16.71478
vt 1.75 16.71478
vt 1.75 17.70976
vt 3 17.70976
vt 3 16.71478
vt 4.5 -0.5
vt 3.25 -0.5
vt 3.25 0.75
vt 4.5 0.75
vt 2 -0.5
vt 2 0.75
vt 2 2
vt 3.25 2
vt 4.5 2
vt 7 -0.5
vt 5.75 -0.5
vt 5.75 0.75
vt 7 0.75
vt 5.75 2
vt 7 2
vt 7 -3
vt 5.75 -3
vt 5.75 -1.75
vt 7 -1.75
vt 4.5 -3
vt 4.5 -1.75
vt 3.25 -3
vt 3.25 -1.75
vt 2 -3
vt 2 -1.75
vt -4.490352 -3
vt -4.490352 -1.75
vt -3.240352 -1.75
vt -3.240352 -3
vt -4.490352 -0.5
vt -3.240352 -0.5
vt -2.28972 -0.5
vt -2.28972 -1.75
vt -2.28972 -3
vt -6.589837 -3
vt -6.589837 -1.75
vt -5.740352 -1.75
vt -5.740352 -3
vt -6.589837 -0.5
vt -5.740352 -0.5
vt -6.589837 0.75
vt -5.740352 0.75
vt -6.589837 2
vt -5.740352 2
vt -4.490352 2
vt -4.490352 0.75
vt -3.240352 0.75
vt -3.240352 2
vt -2.28972 2
vt -2.28972 0.75

vn 0 0 1
vn -0.8682571 -0.4961145 0
vn -1 0 0
vn 0 0 -1
vn 0.9191533 -0.3938999 0
vn 1 0 0
vn 0 1 0
vn 0 -1 0
vn 0.6877375 -0.7259594 0
vn -0.6853574 -0.7282069 0

g Cube (82)
usemtl TrapBlockOutMaterial
f 4/4/1 3/3/1 2/2/1 1/1/1
f 3/3/1 6/6/1 5/5/1 2/2/1
f 8/8/1 7/7/1 6/6/1 3/3/1
f 9/9/1 8/8/1 3/3/1 4/4/1
f 6/6/1 11/11/1 10/10/1 5/5/1
f 11/11/1 13/13/1 12/12/1 10/10/1
f 15/15/1 14/14/1 13/13/1 11/11/1
f 7/7/1 15/15/1 11/11/1 6/6/1
f 17/17/1 16/16/1 15/15/1 7/7/1
f 16/16/1 18/18/1 14/14/1 15/15/1
f 20/20/1 19/19/1 18/18/1 16/16/1
f 21/21/1 20/20/1 16/16/1 17/17/1
f 23/23/1 22/22/1 8/8/1 9/9/1
f 22/22/1 17/17/1 7/7/1 8/8/1
f 24/24/1 21/21/1 17/17/1 22/22/1
f 25/25/1 24/24/1 22/22/1 23/23/1
f 13/29/2 27/28/2 26/27/2 12/26/2
f 27/28/2 29/31/2 28/30/2 26/27/2
f 31/33/3 30/32/3 29/31/3 27/28/3
f 14/34/3 31/33/3 27/28/3 13/29/3
f 29/31/2 33/36/2 32/35/2 28/30/2
f 33/36/2 35/38/2 34/37/2 32/35/2
f 37/40/3 36/39/3 35/38/3 33/36/3
f 30/32/3 37/40/3 33/36/3 29/31/3
f 39/42/3 38/41/3 37/40/3 30/32/3
f 38/41/3 40/43/3 36/39/3 37/40/3
f 42/45/3 41/44/3 40/43/3 38/41/3
f 43/46/3 42/45/3 38/41/3 39/42/3
f 18/48/3 44/47/3 31/33/3 14/34/3
f 44/47/3 39/42/3 30/32/3 31/33/3
f 45/49/3 43/46/3 39/42/3 44/47/3
f 19/50/3 45/49/3 44/47/3 18/48/3
f 49/54/4 48/53/4 47/52/4 46/51/4
f 48/53/4 51/56/4 50/55/4 47/52/4
f 35/58/4 36/57/4 51/56/4 48/53/4
f 34/59/4 35/58/4 48/53/4 49/54/4
f 55/63/4 54/62/4 53/61/4 52/60/4
f 54/62/4 57/65/4 56/64/4 53/61/4
f 47/52/4 50/55/4 57/65/4 54/62/4
f 46/51/4 47/52/4 54/62/4 55/63/4
f 57/65/4 59/67/4 58/66/4 56/64/4
f 59/67/4 61/69/4 60/68/4 58/66/4
f 63/71/4 62/70/4 61/69/4 59/67/4
f 50/55/4 63/71/4 59/67/4 57/65/4
f 51/56/4 64/72/4 63/71/4 50/55/4
f 64/72/4 65/73/4 62/70/4 63/71/4
f 40/75/4 41/74/4 65/73/4 64/72/4
f 36/57/4 40/75/4 64/72/4 51/56/4
f 69/79/5 68/78/5 67/77/5 66/76/5
f 68/78/6 71/81/6 70/80/6 67/77/6
f 53/83/6 56/82/6 71/81/6 68/78/6
f 52/84/5 53/83/5 68/78/5 69/79/5
f 73/88/5 72/87/5 4/86/5 1/85/5
f 72/87/6 74/90/6 9/89/6 4/86/6
f 67/77/6 70/80/6 74/90/6 72/87/6
f 66/76/5 67/77/5 72/87/5 73/88/5
f 74/90/6 75/92/6 23/91/6 9/89/6
f 75/92/6 76/94/6 25/93/6 23/91/6
f 78/96/6 77/95/6 76/94/6 75/92/6
f 70/80/6 78/96/6 75/92/6 74/90/6
f 71/81/6 79/97/6 78/96/6 70/80/6
f 79/97/6 80/98/6 77/95/6 78/96/6
f 58/100/6 60/99/6 80/98/6 79/97/6
f 56/82/6 58/100/6 79/97/6 71/81/6
f 84/104/7 83/103/7 82/102/7 81/101/7
f 83/103/7 76/106/7 77/105/7 82/102/7
f 24/108/7 25/107/7 76/106/7 83/103/7
f 21/109/7 24/108/7 83/103/7 84/104/7
f 45/113/7 86/112/7 85/111/7 43/110/7
f 86/112/7 84/104/7 81/101/7 85/111/7
f 20/114/7 21/109/7 84/104/7 86/112/7
f 19/115/7 20/114/7 86/112/7 45/113/7
f 42/119/7 87/118/7 65/117/7 41/116/7
f 87/118/7 88/121/7 62/120/7 65/117/7
f 85/111/7 81/101/7 88/121/7 87/118/7
f 43/110/7 85/111/7 87/118/7 42/119/7
f 88/121/7 89/123/7 61/122/7 62/120/7
f 89/123/7 80/125/7 60/124/7 61/122/7
f 82/102/7 77/105/7 80/125/7 89/123/7
f 81/101/7 82/102/7 89/123/7 88/121/7
f 55/129/8 91/128/8 90/127/8 46/126/8
f 91/128/8 93/131/8 92/130/8 90/127/8
f 69/133/9 66/132/9 93/131/9 91/128/9
f 52/134/9 69/133/9 91/128/9 55/129/9
f 49/138/10 94/137/10 32/136/10 34/135/10
f 94/137/10 95/140/10 28/139/10 32/136/10
f 90/127/8 92/130/8 95/140/8 94/137/8
f 46/126/8 90/127/8 94/137/8 49/138/8
f 95/140/10 96/142/10 26/141/10 28/139/10
f 96/142/10 10/144/10 12/143/10 26/141/10
f 97/146/8 5/145/8 10/144/8 96/142/8
f 92/130/8 97/146/8 96/142/8 95/140/8
f 93/131/8 98/147/8 97/146/8 92/130/8
f 98/147/8 2/148/8 5/145/8 97/146/8
f 73/150/9 1/149/9 2/148/9 98/147/9
f 66/132/9 73/150/9 98/147/9 93/131/9

