# ProBuilder 4.0.4
# https://unity3d.com/unity/features/worldbuilding/probuilder
# 28/05/2019 15:38:23

mtllib ./Cube_(125).mtl
o Cube (125)

g Cube (125)
v -644 411 2
v -649 411 2
v -644 413 2
v -649 413 2
v -649 411 -3
v -649 413 -3
v -644 411 -3
v -644 413 -3

vt -4 17
vt -9 17
vt -4 19
vt -9 19
vt 2 17
vt -3 17
vt 2 19
vt -3 19
vt 9 17
vt 4 17
vt 9 19
vt 4 19
vt 3 17
vt -2 17
vt 3 19
vt -2 19
vt 4 2
vt 9 2
vt 4 -3
vt 9 -3
vt -4 -3
vt -9 -3
vt -4 2
vt -9 2

vn 0 0 1
vn -1 0 0
vn 0 0 -1
vn 1 0 0
vn 0 1 0
vn 0 -1 0

g Cube (125)
usemtl TrapBlockOutMaterial
f 3/3/1 4/4/1 2/2/1 1/1/1
f 4/7/2 6/8/2 5/6/2 2/5/2
f 6/11/3 8/12/3 7/10/3 5/9/3
f 8/15/4 3/16/4 1/14/4 7/13/4
f 8/19/5 6/20/5 4/18/5 3/17/5
f 1/23/6 2/24/6 5/22/6 7/21/6

