# ProBuilder 4.0.4
# https://unity3d.com/unity/features/worldbuilding/probuilder
# 28/05/2019 15:38:24

mtllib ./Cube_(15).mtl
o Cube (15)

g Cube (15)
v -140 44 2
v -143 44 2
v -140 45 2
v -143 45 2
v -143 44 -3
v -143 45 -3
v -140 44 -3
v -140 45 -3

vt -105 3
vt -108 3
vt -105 4
vt -108 4
vt 2 3
vt -3 3
vt 2 4
vt -3 4
vt 108 3
vt 105 3
vt 108 4
vt 105 4
vt 3 3
vt -2 3
vt 3 4
vt -2 4
vt 105 2
vt 108 2
vt 105 -3
vt 108 -3
vt -105 -3
vt -108 -3
vt -105 2
vt -108 2

vn 0 0 1
vn -1 0 0
vn 0 0 -1
vn 1 0 0
vn 0 1 0
vn 0 -1 0

g Cube (15)
usemtl TrapBlockOutMaterial
f 3/3/1 4/4/1 2/2/1 1/1/1
f 4/7/2 6/8/2 5/6/2 2/5/2
f 6/11/3 8/12/3 7/10/3 5/9/3
f 8/15/4 3/16/4 1/14/4 7/13/4
f 8/19/5 6/20/5 4/18/5 3/17/5
f 1/23/6 2/24/6 5/22/6 7/21/6

