# ProBuilder 4.0.4
# https://unity3d.com/unity/features/worldbuilding/probuilder
# 28/05/2019 15:38:24

mtllib ./Cube_(113).mtl
o Cube (113)

g Cube (113)
v -649 376 2
v -651 376 2
v -649 406 2
v -651 406 2
v -651 376 -3
v -651 406 -3
v -649 376 -3
v -649 406 -3

vt -3 5
vt -5 5
vt -3 35
vt -5 35
vt 2 5
vt 2 35
vt 5 5
vt 3 5
vt 5 35
vt 3 35
vt -2 5
vt -2 35
vt 3 2
vt 5 2
vt 3 -3
vt 5 -3
vt -3 -3
vt -5 -3
vt -3 2
vt -5 2

vn 0 0 1
vn -1 0 0
vn 0 0 -1
vn 1 0 0
vn 0 1 0
vn 0 -1 0

g Cube (113)
usemtl TrapBlockOutMaterial
f 3/3/1 4/4/1 2/2/1 1/1/1
f 4/6/2 6/3/2 5/1/2 2/5/2
f 6/9/3 8/10/3 7/8/3 5/7/3
f 8/10/4 3/12/4 1/11/4 7/8/4
f 8/15/5 6/16/5 4/14/5 3/13/5
f 1/19/6 2/20/6 5/18/6 7/17/6

