# ProBuilder 4.0.4
# https://unity3d.com/unity/features/worldbuilding/probuilder
# 28/05/2019 15:38:24

mtllib ./Cube_(35).mtl
o Cube (35)

g Cube (35)
v -434.9 231.6 2
v -434.9 228.1 2
v -437.15 228.475 2
v -437.15 232.35 2
v -435.5 226.6 2
v -437.15 225.4 2
v -439.4 224.6 2
v -439.4 228.85 2
v -439.4 233.1 2
v -441.65 229.225 2
v -441.65 233.85 2
v -441.65 224.6 2
v -443.9 224.6 2
v -443.9 229.6 2
v -443.9 234.6 2
v -439.4 241.6 2
v -439.4 237.35 2
v -441.65 238.475 2
v -441.65 243.1 2
v -443.9 239.6 2
v -443.9 244.6 2
v -434.9 238.6 2
v -434.9 235.1 2
v -437.15 236.225 2
v -437.15 240.1 2
v -443.9 224.6 0.75
v -443.9 229.6 0.75
v -443.9 224.6 -0.5
v -443.9 229.6 -0.5
v -443.9 234.6 -0.5
v -443.9 234.6 0.75
v -443.9 224.6 -1.75
v -443.9 229.6 -1.75
v -443.9 224.6 -3
v -443.9 229.6 -3
v -443.9 234.6 -3
v -443.9 234.6 -1.75
v -443.9 239.6 -1.75
v -443.9 239.6 -0.5
v -443.9 239.6 -3
v -443.9 244.6 -3
v -443.9 244.6 -1.75
v -443.9 244.6 -0.5
v -443.9 239.6 0.75
v -443.9 244.6 0.75
v -441.65 229.225 -3
v -441.65 233.85 -3
v -441.65 224.6 -3
v -439.4 224.6 -3
v -439.4 228.85 -3
v -439.4 233.1 -3
v -437.15 228.475 -3
v -437.15 232.35 -3
v -437.15 225.4 -3
v -435.5 226.6 -3
v -434.9 228.1 -3
v -434.9 231.6 -3
v -439.4 241.6 -3
v -439.4 237.35 -3
v -437.15 236.225 -3
v -437.15 240.1 -3
v -434.9 235.1 -3
v -434.9 238.6 -3
v -441.65 238.475 -3
v -441.65 243.1 -3
v -435.5 226.6 -0.5
v -434.9 228.1 -0.5
v -434.9 228.1 -1.75
v -435.5 226.6 -1.75
v -434.9 231.6 -0.5
v -434.9 231.6 -1.75
v -434.9 228.1 0.75
v -435.5 226.6 0.75
v -434.9 231.6 0.75
v -434.9 235.1 0.75
v -434.9 238.6 0.75
v -434.9 238.6 -0.5
v -434.9 235.1 -0.5
v -434.9 235.1 -1.75
v -434.9 238.6 -1.75
v -439.4 241.6 -0.5
v -437.15 240.1 -0.5
v -437.15 240.1 0.75
v -439.4 241.6 0.75
v -441.65 243.1 -0.5
v -441.65 243.1 0.75
v -441.65 243.1 -1.75
v -439.4 241.6 -1.75
v -437.15 240.1 -1.75
v -439.4 224.6 -1.75
v -437.15 225.4 -1.75
v -439.4 224.6 -0.5
v -437.15 225.4 -0.5
v -441.65 224.6 -1.75
v -441.65 224.6 -0.5
v -441.65 224.6 0.75
v -439.4 224.6 0.75
v -437.15 225.4 0.75

vt 2 19
vt 2 15.5
vt -0.25 15.875
vt -0.25 19.75
vt 1.399994 14
vt -0.25 12.8
vt -2.5 12
vt -2.5 16.25
vt -2.5 20.5
vt -4.75 16.625
vt -4.75 21.25
vt -4.75 12
vt -7 12
vt -7 17
vt -7 22
vt -2.5 29
vt -2.5 24.75
vt -4.75 25.875
vt -4.75 30.5
vt -7 27
vt -7 32
vt 2 26
vt 2 22.5
vt -0.25 23.625
vt -0.25 27.5
vt 2 12
vt 0.75 12
vt 0.75 17
vt 2 17
vt -0.5 12
vt -0.5 17
vt -0.5 22
vt 0.75 22
vt 2 22
vt -1.75 12
vt -1.75 17
vt -3 12
vt -3 17
vt -3 22
vt -1.75 22
vt -1.75 27
vt -0.5 27
vt -3 27
vt -3 32
vt -1.75 32
vt -0.5 32
vt 0.75 27
vt 2 27
vt 0.75 32
vt 2 32
vt 7 22
vt 7 17
vt 4.75 16.625
vt 4.75 21.25
vt 7 12
vt 4.75 12
vt 2.5 12
vt 2.5 16.25
vt 2.5 20.5
vt 0.25 15.875
vt 0.25 19.75
vt 0.25 12.8
vt -1.399994 14
vt -2 15.5
vt -2 19
vt 2.5 29
vt 2.5 24.75
vt 0.25 23.625
vt 0.25 27.5
vt -2 22.5
vt -2 26
vt 7 32
vt 7 27
vt 4.75 25.875
vt 4.75 30.5
vt 0.5 14.06962
vt 0.5 15.61943
vt 1.75 15.61943
vt 1.75 14.06962
vt 0.5 19.1039
vt 1.75 19.1039
vt 3 19.1039
vt 3 15.61943
vt 3 14.06962
vt -2 14.06962
vt -2 15.61943
vt -0.75 15.61943
vt -0.75 14.06962
vt -2 19.1039
vt -0.75 19.1039
vt -2 22.58836
vt -0.75 22.58836
vt -2 26.07282
vt -0.75 26.07282
vt 0.5 26.07282
vt 0.5 22.58836
vt 1.75 22.58836
vt 1.75 26.07282
vt 3 26.07282
vt 3 22.58836
vt 18.16643 -0.5
vt 15.46227 -0.5
vt 15.46227 0.75
vt 18.16643 0.75
vt 12.75811 -0.5
vt 12.75811 0.75
vt 12.75811 2
vt 15.46227 2
vt 18.16643 2
vt 23.57476 -0.5
vt 20.8706 -0.5
vt 20.8706 0.75
vt 23.57476 0.75
vt 20.8706 2
vt 23.57476 2
vt 23.57476 -3
vt 20.8706 -3
vt 20.8706 -1.75
vt 23.57476 -1.75
vt 18.16643 -3
vt 18.16643 -1.75
vt 15.46227 -3
vt 15.46227 -1.75
vt 12.75811 -3
vt 12.75811 -1.75
vt 0.440298 -3
vt 0.440298 -1.75
vt 2.81629 -1.75
vt 2.81629 -3
vt 0.440298 -0.5
vt 2.81629 -0.5
vt 4.705256 -0.5
vt 4.705256 -1.75
vt 4.705256 -3
vt -3.929303 -3
vt -3.929303 -1.75
vt -1.744503 -1.75
vt -1.744503 -3
vt -3.929303 -0.5
vt -1.744503 -0.5
vt -3.929303 0.75
vt -1.744503 0.75
vt -3.929303 2
vt -1.744503 2
vt 0.440298 2
vt 0.440298 0.75
vt 2.81629 0.75
vt 2.81629 2
vt 4.705256 2
vt 4.705256 0.75

vn 0 0 1
vn -1 0 0
vn 0 0 -1
vn 0.9284754 -0.3713939 0
vn 1 0 0
vn 0.5547002 0.8320503 0
vn 0.3350108 -0.9422143 0
vn 0.5881721 -0.8087358 0
vn 0 -1 0

g Cube (35)
usemtl TrapBlockOutMaterial
f 4/4/1 3/3/1 2/2/1 1/1/1
f 3/3/1 6/6/1 5/5/1 2/2/1
f 8/8/1 7/7/1 6/6/1 3/3/1
f 9/9/1 8/8/1 3/3/1 4/4/1
f 11/11/1 10/10/1 8/8/1 9/9/1
f 10/10/1 12/12/1 7/7/1 8/8/1
f 14/14/1 13/13/1 12/12/1 10/10/1
f 15/15/1 14/14/1 10/10/1 11/11/1
f 19/19/1 18/18/1 17/17/1 16/16/1
f 18/18/1 11/11/1 9/9/1 17/17/1
f 20/20/1 15/15/1 11/11/1 18/18/1
f 21/21/1 20/20/1 18/18/1 19/19/1
f 25/25/1 24/24/1 23/23/1 22/22/1
f 24/24/1 4/4/1 1/1/1 23/23/1
f 17/17/1 9/9/1 4/4/1 24/24/1
f 16/16/1 17/17/1 24/24/1 25/25/1
f 14/29/2 27/28/2 26/27/2 13/26/2
f 27/28/2 29/31/2 28/30/2 26/27/2
f 31/33/2 30/32/2 29/31/2 27/28/2
f 15/34/2 31/33/2 27/28/2 14/29/2
f 29/31/2 33/36/2 32/35/2 28/30/2
f 33/36/2 35/38/2 34/37/2 32/35/2
f 37/40/2 36/39/2 35/38/2 33/36/2
f 30/32/2 37/40/2 33/36/2 29/31/2
f 39/42/2 38/41/2 37/40/2 30/32/2
f 38/41/2 40/43/2 36/39/2 37/40/2
f 42/45/2 41/44/2 40/43/2 38/41/2
f 43/46/2 42/45/2 38/41/2 39/42/2
f 20/48/2 44/47/2 31/33/2 15/34/2
f 44/47/2 39/42/2 30/32/2 31/33/2
f 45/49/2 43/46/2 39/42/2 44/47/2
f 21/50/2 45/49/2 44/47/2 20/48/2
f 47/54/3 46/53/3 35/52/3 36/51/3
f 46/53/3 48/56/3 34/55/3 35/52/3
f 50/58/3 49/57/3 48/56/3 46/53/3
f 51/59/3 50/58/3 46/53/3 47/54/3
f 53/61/3 52/60/3 50/58/3 51/59/3
f 52/60/3 54/62/3 49/57/3 50/58/3
f 56/64/3 55/63/3 54/62/3 52/60/3
f 57/65/3 56/64/3 52/60/3 53/61/3
f 61/69/3 60/68/3 59/67/3 58/66/3
f 60/68/3 53/61/3 51/59/3 59/67/3
f 62/70/3 57/65/3 53/61/3 60/68/3
f 63/71/3 62/70/3 60/68/3 61/69/3
f 65/75/3 64/74/3 40/73/3 41/72/3
f 64/74/3 47/54/3 36/51/3 40/73/3
f 59/67/3 51/59/3 47/54/3 64/74/3
f 58/66/3 59/67/3 64/74/3 65/75/3
f 69/79/4 68/78/4 67/77/4 66/76/4
f 68/78/5 71/81/5 70/80/5 67/77/5
f 56/83/5 57/82/5 71/81/5 68/78/5
f 55/84/4 56/83/4 68/78/4 69/79/4
f 73/88/4 72/87/4 2/86/4 5/85/4
f 72/87/5 74/90/5 1/89/5 2/86/5
f 67/77/5 70/80/5 74/90/5 72/87/5
f 66/76/4 67/77/4 72/87/4 73/88/4
f 74/90/5 75/92/5 23/91/5 1/89/5
f 75/92/5 76/94/5 22/93/5 23/91/5
f 78/96/5 77/95/5 76/94/5 75/92/5
f 70/80/5 78/96/5 75/92/5 74/90/5
f 71/81/5 79/97/5 78/96/5 70/80/5
f 79/97/5 80/98/5 77/95/5 78/96/5
f 62/100/5 63/99/5 80/98/5 79/97/5
f 57/82/5 62/100/5 79/97/5 71/81/5
f 84/104/6 83/103/6 82/102/6 81/101/6
f 83/103/6 76/106/6 77/105/6 82/102/6
f 25/108/6 22/107/6 76/106/6 83/103/6
f 16/109/6 25/108/6 83/103/6 84/104/6
f 45/113/6 86/112/6 85/111/6 43/110/6
f 86/112/6 84/104/6 81/101/6 85/111/6
f 19/114/6 16/109/6 84/104/6 86/112/6
f 21/115/6 19/114/6 86/112/6 45/113/6
f 42/119/6 87/118/6 65/117/6 41/116/6
f 87/118/6 88/121/6 58/120/6 65/117/6
f 85/111/6 81/101/6 88/121/6 87/118/6
f 43/110/6 85/111/6 87/118/6 42/119/6
f 88/121/6 89/123/6 61/122/6 58/120/6
f 89/123/6 80/125/6 63/124/6 61/122/6
f 82/102/6 77/105/6 80/125/6 89/123/6
f 81/101/6 82/102/6 89/123/6 88/121/6
f 54/129/7 91/128/7 90/127/7 49/126/7
f 91/128/7 93/131/7 92/130/7 90/127/7
f 69/133/8 66/132/8 93/131/8 91/128/8
f 55/134/8 69/133/8 91/128/8 54/129/8
f 48/138/9 94/137/9 32/136/9 34/135/9
f 94/137/9 95/140/9 28/139/9 32/136/9
f 90/127/9 92/130/9 95/140/9 94/137/9
f 49/126/9 90/127/9 94/137/9 48/138/9
f 95/140/9 96/142/9 26/141/9 28/139/9
f 96/142/9 12/144/9 13/143/9 26/141/9
f 97/146/9 7/145/9 12/144/9 96/142/9
f 92/130/9 97/146/9 96/142/9 95/140/9
f 93/131/7 98/147/7 97/146/7 92/130/7
f 98/147/7 6/148/7 7/145/7 97/146/7
f 73/150/8 5/149/8 6/148/8 98/147/8
f 66/132/8 73/150/8 98/147/8 93/131/8

