# ProBuilder 4.0.4
# https://unity3d.com/unity/features/worldbuilding/probuilder
# 28/05/2019 15:38:24

mtllib ./Cube_(59).mtl
o Cube (59)

g Cube (59)
v -414 232.7 2
v -423 232.7 2
v -414 233.7 2
v -423 233.7 2
v -423 232.7 -3
v -423 233.7 -3
v -414 232.7 -3
v -414 233.7 -3

vt 0 21
vt -9 21
vt 0 22
vt -9 22
vt 2 21
vt -3 21
vt 2 22
vt -3 22
vt 9 21
vt 9 22
vt 3 21
vt -2 21
vt 3 22
vt -2 22
vt 0 2
vt 9 2
vt 0 -3
vt 9 -3
vt -9 -3
vt -9 2

vn 0 0 1
vn -1 0 0
vn 0 0 -1
vn 1 0 0
vn 0 1 0
vn 0 -1 0

g Cube (59)
usemtl MetricsProbuilder
f 3/3/1 4/4/1 2/2/1 1/1/1
f 4/7/2 6/8/2 5/6/2 2/5/2
f 6/10/3 8/3/3 7/1/3 5/9/3
f 8/13/4 3/14/4 1/12/4 7/11/4
f 8/17/5 6/18/5 4/16/5 3/15/5
f 1/15/6 2/20/6 5/19/6 7/17/6

