# ProBuilder 4.0.4
# https://unity3d.com/unity/features/worldbuilding/probuilder
# 28/05/2019 15:38:23

mtllib ./Cube_(102).mtl
o Cube (102)

g Cube (102)
v -644 330 2
v -651 330 2
v -644 332 2
v -651 332 2
v -651 330 -3
v -651 332 -3
v -644 330 -3
v -644 332 -3

vt -2 17
vt -9 17
vt -2 19
vt -9 19
vt 2 17
vt -3 17
vt 2 19
vt -3 19
vt 9 17
vt 9 19
vt 3 17
vt 3 19
vt 2 2
vt 9 2
vt 2 -3
vt 9 -3
vt -2 -3
vt -9 -3
vt -2 2
vt -9 2

vn 0 0 1
vn -1 0 0
vn 0 0 -1
vn 1 0 0
vn 0 1 0
vn 0 -1 0

g Cube (102)
usemtl TrapBlockOutMaterial
f 3/3/1 4/4/1 2/2/1 1/1/1
f 4/7/2 6/8/2 5/6/2 2/5/2
f 6/10/3 8/7/3 7/5/3 5/9/3
f 8/12/4 3/3/4 1/1/4 7/11/4
f 8/15/5 6/16/5 4/14/5 3/13/5
f 1/19/6 2/20/6 5/18/6 7/17/6

