# ProBuilder 4.0.4
# https://unity3d.com/unity/features/worldbuilding/probuilder
# 28/05/2019 15:38:24

mtllib ./Cube_(122).mtl
o Cube (122)

g Cube (122)
v -731.4943 454 8.310944
v -743.5057 454 8.310944
v -723 471 9.689056
v -752 471 9.689056
v -743.5057 454 -3.310944
v -752 471 -4.689056
v -731.4943 454 -3.310944
v -723 471 -4.689056

vt -8.494324 -1.321933
vt -20.50568 -1.321933
vt 0 15.73383
vt -29 15.73383
vt 8.310944 7.376424
vt -3.310944 7.376424
vt 9.689056 26.38046
vt -4.689056 26.38046
vt 20.50568 -1.725935
vt 8.494324 -1.725935
vt 29 15.32983
vt 0 15.32983
vt 3.310944 -5.585841
vt -8.310944 -5.585841
vt 4.689056 13.4182
vt -9.689056 13.4182
vt 0 9.689056
vt 29 9.689056
vt 0 -4.689056
vt 29 -4.689056
vt -8.494324 -3.310944
vt -20.50568 -3.310944
vt -8.494324 8.310944
vt -20.50568 8.310944

vn 0 -0.08080041 0.9967303
vn -0.8945466 -0.4469746 0
vn 0 -0.08080035 -0.9967303
vn 0.8945466 -0.4469746 0
vn 0 1 0
vn 0 -1 0

g Cube (122)
usemtl MetricsProbuilder
f 3/3/1 4/4/1 2/2/1 1/1/1
f 4/7/2 6/8/2 5/6/2 2/5/2
f 6/11/3 8/12/3 7/10/3 5/9/3
f 8/15/4 3/16/4 1/14/4 7/13/4
f 8/19/5 6/20/5 4/18/5 3/17/5
f 1/23/6 2/24/6 5/22/6 7/21/6

