# ProBuilder 4.0.4
# https://unity3d.com/unity/features/worldbuilding/probuilder
# 16/05/2019 10:12:33

mtllib ./Cube8.mtl
o Cube8

g Cube8
v -97 2 1.5
v -98.5 2 1.5
v -98.5 9.75 1.5
v -97 9.75 1.5
v -100 2 1.5
v -100 9.75 1.5
v -100 17.5 1.5
v -98.5 17.5 1.5
v -97 17.5 1.5
v -101.5 2 1.5
v -101.5 9.75 1.5
v -103 2 1.5
v -103 9.75 1.5
v -103 17.5 1.5
v -101.5 17.5 1.5
v -101.5 25.25 1.5
v -100 25.25 1.5
v -103 25.25 1.5
v -103 33 1.5
v -101.5 33 1.5
v -100 33 1.5
v -98.5 25.25 1.5
v -97 25.25 1.5
v -98.5 33 1.5
v -97 33 1.5
v -103 2 0.375
v -103 9.75 0.375
v -103 2 -0.75
v -103 9.75 -0.75
v -103 17.5 -0.75
v -103 17.5 0.375
v -103 2 -1.875
v -103 9.75 -1.875
v -103 2 -3
v -103 9.75 -3
v -103 17.5 -3
v -103 17.5 -1.875
v -103 25.25 -1.875
v -103 25.25 -0.75
v -103 25.25 -3
v -103 33 -3
v -103 33 -1.875
v -103 33 -0.75
v -103 25.25 0.375
v -103 33 0.375
v -100 2 -3
v -100 9.75 -3
v -101.5 9.75 -3
v -101.5 2 -3
v -100 17.5 -3
v -101.5 17.5 -3
v -97 2 -3
v -97 9.75 -3
v -98.5 9.75 -3
v -98.5 2 -3
v -97 17.5 -3
v -98.5 17.5 -3
v -97 25.25 -3
v -98.5 25.25 -3
v -97 33 -3
v -98.5 33 -3
v -100 32.32942 -4.378704
v -100 25.25 -3
v -101.5 25.25 -3
v -101.5 32.32942 -4.378704
v -97 2 -0.75
v -97 9.75 -0.75
v -97 9.75 -1.875
v -97 2 -1.875
v -97 17.5 -0.75
v -97 17.5 -1.875
v -97 9.75 0.375
v -97 2 0.375
v -97 17.5 0.375
v -97 25.25 0.375
v -97 33 0.375
v -97 33 -0.75
v -97 25.25 -0.75
v -97 25.25 -1.875
v -97 33 -1.875
v -100 33 -0.75
v -98.5 33 -0.75
v -98.5 33 0.375
v -100 33 0.375
v -101.5 33 -0.75
v -101.5 33 0.375
v -101.5 33 -1.875
v -100 33 -1.875
v -98.5 33 -1.875
v -100 2 -1.875
v -98.5 2 -1.875
v -100 2 -0.75
v -98.5 2 -0.75
v -101.5 2 -1.875
v -101.5 2 -0.75
v -101.5 2 0.375
v -100 2 0.375
v -98.5 2 0.375

vt 0 -27
vt -1.5 -27
vt -1.5 -19.25
vt 0 -19.25
vt -3 -27
vt -3 -19.25
vt -3 -11.5
vt -1.5 -11.5
vt 0 -11.5
vt -4.5 -27
vt -4.5 -19.25
vt -6 -27
vt -6 -19.25
vt -6 -11.5
vt -4.5 -11.5
vt -4.5 -3.75
vt -3 -3.75
vt -6 -3.75
vt -6 4
vt -4.5 4
vt -3 4
vt -1.5 -3.75
vt 0 -3.75
vt -1.5 4
vt 0 4
vt 1.5 -27
vt 0.375 -27
vt 0.375 -19.25
vt 1.5 -19.25
vt -0.75 -27
vt -0.75 -19.25
vt -0.75 -11.5
vt 0.375 -11.5
vt 1.5 -11.5
vt -1.875 -27
vt -1.875 -19.25
vt -1.875 -11.5
vt -1.875 -3.75
vt -0.75 -3.75
vt -1.875 4
vt -0.75 4
vt 0.375 -3.75
vt 1.5 -3.75
vt 0.375 4
vt 1.5 4
vt 2.994939 -26.93016
vt 2.994939 -19.18191
vt 4.494937 -19.18185
vt 4.494937 -26.93011
vt 2.994939 -11.43365
vt 4.494937 -11.4336
vt 5.994935 -11.43355
vt 5.994935 -19.1818
vt 5.994935 -26.93006
vt -0.005056787 -26.93027
vt -0.005056787 -19.18201
vt 1.494941 -19.18196
vt 1.494941 -26.93022
vt -0.005056787 -11.43376
vt 1.494941 -11.43371
vt -0.005056787 -3.685504
vt 1.494941 -3.685451
vt -0.005056787 4.062751
vt 1.494941 4.062805
vt 2.992615 3.421684
vt 2.994939 -3.685397
vt 4.494937 -3.685343
vt 4.492613 3.421737
vt 5.994935 4.062966
vt 5.994935 -3.68529
vt 0.75 -27
vt 0.75 -19.25
vt 1.875 -19.25
vt 1.875 -27
vt 0.75 -11.5
vt 1.875 -11.5
vt 3 -11.5
vt 3 -19.25
vt 3 -27
vt -0.375 -19.25
vt -0.375 -27
vt -0.375 -11.5
vt -0.375 -3.75
vt -0.375 4
vt 0.75 4
vt 0.75 -3.75
vt 1.875 -3.75
vt 1.875 4
vt 3 4
vt 3 -3.75
vt 2.944717 -0.6187905
vt 1.444859 -0.6194582
vt 1.444859 0.5049521
vt 2.944717 0.5056198
vt -0.05499939 -0.6201259
vt -0.05499939 0.5042844
vt -0.05499939 1.628695
vt 1.444859 1.629362
vt 2.944717 1.63003
vt 5.944433 -0.6174551
vt 4.444575 -0.6181228
vt 4.444575 0.5062875
vt 5.944433 0.5069551
vt 4.444575 1.630698
vt 5.944433 1.631366
vt 5.944433 -2.866276
vt 4.453795 -4.266632
vt 4.444575 -1.742533
vt 5.944433 -1.741866
vt 2.953937 -4.267299
vt 2.944717 -1.743201
vt 1.444859 -2.868279
vt 1.444859 -1.743869
vt -0.05499939 -2.868947
vt -0.05499939 -1.744536
vt -3 -3
vt -3 -1.875
vt -1.5 -1.875
vt -1.5 -3
vt -3 -0.75
vt -1.5 -0.75
vt 0 -0.75
vt 0 -1.875
vt 0 -3
vt -6 -3
vt -6 -1.875
vt -4.5 -1.875
vt -4.5 -3
vt -6 -0.75
vt -4.5 -0.75
vt -6 0.375
vt -4.5 0.375
vt -6 1.5
vt -4.5 1.5
vt -3 1.5
vt -3 0.375
vt -1.5 0.375
vt -1.5 1.5
vt 0 1.5
vt 0 0.375

vn 0 0 1
vn -1 0 0
vn 0 0 -1
vn 0.676712 0 -0.7362479
vn 0.338356 -0.09557843 -0.8589037
vn 0 -0.1911569 -0.9815595
vn -0.7026975 -0.136006 -0.6983685
vn -0.3513487 -0.06800298 -0.8491843
vn 1 0 0
vn 0 1 0
vn 0.09524196 0.9741336 -0.1269893
vn 0.1904839 0.9482672 -0.2539786
vn 0 0.9659536 -0.2587156
vn -0.2040627 0.9394398 -0.1293578
vn -0.4081253 0.9129259 0
vn 0 -1 0

g Cube8
usemtl MetricsProbuilder
f 4/4/1 3/3/1 2/2/1 1/1/1
f 3/3/1 6/6/1 5/5/1 2/2/1
f 8/8/1 7/7/1 6/6/1 3/3/1
f 9/9/1 8/8/1 3/3/1 4/4/1
f 6/6/1 11/11/1 10/10/1 5/5/1
f 11/11/1 13/13/1 12/12/1 10/10/1
f 15/15/1 14/14/1 13/13/1 11/11/1
f 7/7/1 15/15/1 11/11/1 6/6/1
f 17/17/1 16/16/1 15/15/1 7/7/1
f 16/16/1 18/18/1 14/14/1 15/15/1
f 20/20/1 19/19/1 18/18/1 16/16/1
f 21/21/1 20/20/1 16/16/1 17/17/1
f 23/23/1 22/22/1 8/8/1 9/9/1
f 22/22/1 17/17/1 7/7/1 8/8/1
f 24/24/1 21/21/1 17/17/1 22/22/1
f 25/25/1 24/24/1 22/22/1 23/23/1
f 13/29/2 27/28/2 26/27/2 12/26/2
f 27/28/2 29/31/2 28/30/2 26/27/2
f 31/33/2 30/32/2 29/31/2 27/28/2
f 14/34/2 31/33/2 27/28/2 13/29/2
f 29/31/2 33/36/2 32/35/2 28/30/2
f 33/36/2 35/6/2 34/5/2 32/35/2
f 37/37/2 36/7/2 35/6/2 33/36/2
f 30/32/2 37/37/2 33/36/2 29/31/2
f 39/39/2 38/38/2 37/37/2 30/32/2
f 38/38/2 40/17/2 36/7/2 37/37/2
f 42/40/2 41/21/2 40/17/2 38/38/2
f 43/41/2 42/40/2 38/38/2 39/39/2
f 18/43/2 44/42/2 31/33/2 14/34/2
f 44/42/2 39/39/2 30/32/2 31/33/2
f 45/44/2 43/41/2 39/39/2 44/42/2
f 19/45/2 45/44/2 44/42/2 18/43/2
f 49/49/3 48/48/3 47/47/3 46/46/3
f 48/48/3 51/51/3 50/50/3 47/47/3
f 35/53/3 36/52/3 51/51/3 48/48/3
f 34/54/3 35/53/3 48/48/3 49/49/3
f 55/58/3 54/57/3 53/56/3 52/55/3
f 54/57/3 57/60/3 56/59/3 53/56/3
f 47/47/3 50/50/3 57/60/3 54/57/3
f 46/46/3 47/47/3 54/57/3 55/58/3
f 57/60/3 59/62/3 58/61/3 56/59/3
f 59/62/3 61/64/3 60/63/3 58/61/3
f 63/66/6 62/65/5 61/64/4 59/62/5
f 50/50/3 63/66/3 59/62/3 57/60/3
f 51/51/3 64/67/3 63/66/3 50/50/3
f 64/67/6 65/68/6 62/65/6 63/66/6
f 40/70/3 41/69/8 65/68/7 64/67/8
f 36/52/3 40/70/3 64/67/3 51/51/3
f 69/74/9 68/73/9 67/72/9 66/71/9
f 68/73/9 71/76/9 70/75/9 67/72/9
f 53/78/9 56/77/9 71/76/9 68/73/9
f 52/79/9 53/78/9 68/73/9 69/74/9
f 73/81/9 72/80/9 4/3/9 1/2/9
f 72/80/9 74/82/9 9/8/9 4/3/9
f 67/72/9 70/75/9 74/82/9 72/80/9
f 66/71/9 67/72/9 72/80/9 73/81/9
f 74/82/9 75/83/9 23/22/9 9/8/9
f 75/83/9 76/84/9 25/24/9 23/22/9
f 78/86/9 77/85/9 76/84/9 75/83/9
f 70/75/9 78/86/9 75/83/9 74/82/9
f 71/76/9 79/87/9 78/86/9 70/75/9
f 79/87/9 80/88/9 77/85/9 78/86/9
f 58/90/9 60/89/9 80/88/9 79/87/9
f 56/77/9 58/90/9 79/87/9 71/76/9
f 84/94/10 83/93/10 82/92/10 81/91/10
f 83/93/10 76/96/10 77/95/10 82/92/10
f 24/98/10 25/97/10 76/96/10 83/93/10
f 21/99/10 24/98/10 83/93/10 84/94/10
f 45/103/10 86/102/10 85/101/10 43/100/10
f 86/102/10 84/94/10 81/91/10 85/101/10
f 20/104/10 21/99/10 84/94/10 86/102/10
f 19/105/10 20/104/10 86/102/10 45/103/10
f 42/109/10 87/108/11 65/107/12 41/106/11
f 87/108/13 88/111/13 62/110/13 65/107/13
f 85/101/10 81/91/10 88/111/10 87/108/10
f 43/100/10 85/101/10 87/108/10 42/109/10
f 88/111/13 89/113/14 61/112/15 62/110/14
f 89/113/10 80/115/10 60/114/10 61/112/10
f 82/92/10 77/95/10 80/115/10 89/113/10
f 81/91/10 82/92/10 89/113/10 88/111/10
f 55/119/16 91/118/16 90/117/16 46/116/16
f 91/118/16 93/121/16 92/120/16 90/117/16
f 69/123/16 66/122/16 93/121/16 91/118/16
f 52/124/16 69/123/16 91/118/16 55/119/16
f 49/128/16 94/127/16 32/126/16 34/125/16
f 94/127/16 95/130/16 28/129/16 32/126/16
f 90/117/16 92/120/16 95/130/16 94/127/16
f 46/116/16 90/117/16 94/127/16 49/128/16
f 95/130/16 96/132/16 26/131/16 28/129/16
f 96/132/16 10/134/16 12/133/16 26/131/16
f 97/136/16 5/135/16 10/134/16 96/132/16
f 92/120/16 97/136/16 96/132/16 95/130/16
f 93/121/16 98/137/16 97/136/16 92/120/16
f 98/137/16 2/138/16 5/135/16 97/136/16
f 73/140/16 1/139/16 2/138/16 98/137/16
f 66/122/16 73/140/16 98/137/16 93/121/16

