# ProBuilder 4.0.4
# https://unity3d.com/unity/features/worldbuilding/probuilder
# 16/05/2019 10:12:33

mtllib ./Cube_(25).mtl
o Cube (25)

g Cube (25)
v -178 59 2
v -180 59 2
v -178 78 2
v -180 78 2
v -180 59 -3
v -180 78 -3
v -178 59 -3
v -178 78 -3

vt 0 -12
vt -2 -12
vt 0 7
vt -2 7
vt 2 -12
vt -3 -12
vt 2 7
vt -3 7
vt 3 -12
vt 3 7
vt 0 2
vt 2 2
vt 0 -3
vt 2 -3
vt -2 -3
vt -2 2

vn 0 0 1
vn -1 0 0
vn 0 0 -1
vn 1 0 0
vn 0 1 0
vn 0 -1 0

g Cube (25)
usemtl MetricsProbuilder
f 3/3/1 4/4/1 2/2/1 1/1/1
f 4/7/2 6/8/2 5/6/2 2/5/2
f 6/7/3 8/3/3 7/1/3 5/5/3
f 8/10/4 3/4/4 1/2/4 7/9/4
f 8/13/5 6/14/5 4/12/5 3/11/5
f 1/11/6 2/16/6 5/15/6 7/13/6

