# ProBuilder 4.0.4
# https://unity3d.com/unity/features/worldbuilding/probuilder
# 16/05/2019 10:12:33

mtllib ./Cube_(13).mtl
o Cube (13)

g Cube (13)
v -110 2 1.5
v -111.5 2 1.5
v -111.5 11 1.5
v -110 11 1.5
v -113 2 1.5
v -113 11 1.5
v -113 20 1.5
v -111.5 20 1.5
v -110 20 1.5
v -114.5 2 1.5
v -114.5 11 1.5
v -116 2 1.5
v -116 11 1.5
v -116 20 1.5
v -114.5 20 1.5
v -114.5 29 1.5
v -113 29 1.5
v -116 29 1.5
v -116 38 1.5
v -114.5 38 1.5
v -113 38 1.5
v -111.5 29 1.5
v -110 29 1.5
v -111.5 38 1.5
v -110 38 1.5
v -116 2 -0.25
v -116 11 -0.25
v -116 2 -0.5
v -116 11 -0.5
v -116 20 -0.5
v -116 20 -0.25
v -116 2 -0.75
v -116 11 -0.75
v -116 2 -3
v -116 11 -3
v -116 20 -3
v -116 20 -0.75
v -116 29 -0.75
v -116 29 -0.5
v -116 29 -3
v -116 38 -3
v -116 38 -0.75
v -116 38 -0.5
v -116 29 -0.25
v -116 38 -0.25
v -113 2 -3
v -113 11 -3
v -114.5 11 -3
v -114.5 2 -3
v -113 20 -3
v -114.5 20 -3
v -110 2 -3
v -110 11 -3
v -111.5 11 -3
v -111.5 2 -3
v -110 20 -3
v -111.5 20 -3
v -110 29 -3
v -111.5 29 -3
v -110 38 -3
v -111.5 38 -3
v -113 37.48674 -3
v -113 29 -3
v -114.5 29 -3
v -114.5 37.48674 -3
v -110 2 -0.5
v -110 11 -0.5
v -110 11 -0.75
v -110 2 -0.75
v -110 20 -0.5
v -110 20 -0.75
v -110 11 -0.25
v -110 2 -0.25
v -110 20 -0.25
v -110 29 -0.25
v -110 38 -0.25
v -110 38 -0.5
v -110 29 -0.5
v -110 29 -0.75
v -110 38 -0.75
v -113 38 -0.5
v -111.5 38 -0.5
v -111.5 38 -0.25
v -113 38 -0.25
v -114.5 38 -0.5
v -114.5 38 -0.25
v -114.5 38 -0.75
v -113 38 -0.75
v -111.5 38 -0.75
v -113 2 -0.75
v -111.5 2 -0.75
v -113 2 -0.5
v -111.5 2 -0.5
v -114.5 2 -0.75
v -114.5 2 -0.5
v -114.5 2 -0.25
v -113 2 -0.25
v -111.5 2 -0.25

vt 0 -33
vt -1.5 -33
vt -1.5 -24
vt 0 -24
vt -3 -33
vt -3 -24
vt -3 -15
vt -1.5 -15
vt 0 -15
vt -4.5 -33
vt -4.5 -24
vt -6 -33
vt -6 -24
vt -6 -15
vt -4.5 -15
vt -4.5 -6
vt -3 -6
vt -6 -6
vt -6 3
vt -4.5 3
vt -3 3
vt -1.5 -6
vt 0 -6
vt -1.5 3
vt 0 3
vt 1.5 -33
vt -0.25 -33
vt -0.25 -24
vt 1.5 -24
vt -0.5 -33
vt -0.5 -24
vt -0.5 -15
vt -0.25 -15
vt 1.5 -15
vt -0.75 -33
vt -0.75 -24
vt -0.75 -15
vt -0.75 -6
vt -0.5 -6
vt -0.75 3
vt -0.5 3
vt -0.25 -6
vt 1.5 -6
vt -0.25 3
vt 1.5 3
vt 3 -33
vt 3 -24
vt 4.5 -24
vt 4.5 -33
vt 3 -15
vt 4.5 -15
vt 6 -15
vt 6 -24
vt 6 -33
vt 3 2.486736
vt 3 -6
vt 4.5 -6
vt 4.5 2.486736
vt 6 3
vt 6 -6
vt 0.5 -33
vt 0.5 -24
vt 0.75 -24
vt 0.75 -33
vt 0.5 -15
vt 0.75 -15
vt 0.25 -24
vt 0.25 -33
vt 0.25 -15
vt 0.25 -6
vt 0.25 3
vt 0.5 3
vt 0.5 -6
vt 0.75 -6
vt 0.75 3
vt 3 3
vt 2.99862 -0.4177578
vt 1.49862 -0.4177766
vt 1.49862 -0.1678701
vt 2.99862 -0.1678512
vt -0.001379595 -0.4177955
vt -0.001379595 -0.167889
vt -0.001379595 1.581457
vt 1.49862 1.581476
vt 2.99862 1.581495
vt 5.99862 -0.4177201
vt 4.49862 -0.4177389
vt 4.49862 -0.1678324
vt 5.99862 -0.1678135
vt 4.49862 1.581514
vt 5.99862 1.581532
vt 5.99862 -2.916786
vt 4.498856 -2.930837
vt 4.49862 -0.6676455
vt 5.99862 -0.6676266
vt 2.998856 -2.930856
vt 2.99862 -0.6676643
vt 1.49862 -2.916842
vt 1.49862 -0.6676832
vt -0.001379595 -2.916861
vt -0.001379595 -0.6677021
vt -3 -3
vt -3 -0.75
vt -1.5 -0.75
vt -1.5 -3
vt -3 -0.5
vt -1.5 -0.5
vt 0 -0.5
vt 0 -0.75
vt 0 -3
vt -6 -3
vt -6 -0.75
vt -4.5 -0.75
vt -4.5 -3
vt -6 -0.5
vt -4.5 -0.5
vt -6 -0.25
vt -4.5 -0.25
vt -6 1.5
vt -4.5 1.5
vt -3 1.5
vt -3 -0.25
vt -1.5 -0.25
vt -1.5 1.5
vt 0 1.5
vt 0 -0.25

vn 0 0 1
vn -1 0 0
vn 0 0 -1
vn 1 0 0
vn 0 1 0
vn 0.1582302 0.9624237 -0.1054868
vn 0.3164604 0.9248475 -0.2109736
vn 0 0.9749546 -0.2224039
vn -0.1618737 0.9605491 -0.111202
vn -0.3237474 0.9461436 0
vn 0 -1 0

g Cube (13)
usemtl MetricsProbuilder
f 4/4/1 3/3/1 2/2/1 1/1/1
f 3/3/1 6/6/1 5/5/1 2/2/1
f 8/8/1 7/7/1 6/6/1 3/3/1
f 9/9/1 8/8/1 3/3/1 4/4/1
f 6/6/1 11/11/1 10/10/1 5/5/1
f 11/11/1 13/13/1 12/12/1 10/10/1
f 15/15/1 14/14/1 13/13/1 11/11/1
f 7/7/1 15/15/1 11/11/1 6/6/1
f 17/17/1 16/16/1 15/15/1 7/7/1
f 16/16/1 18/18/1 14/14/1 15/15/1
f 20/20/1 19/19/1 18/18/1 16/16/1
f 21/21/1 20/20/1 16/16/1 17/17/1
f 23/23/1 22/22/1 8/8/1 9/9/1
f 22/22/1 17/17/1 7/7/1 8/8/1
f 24/24/1 21/21/1 17/17/1 22/22/1
f 25/25/1 24/24/1 22/22/1 23/23/1
f 13/29/2 27/28/2 26/27/2 12/26/2
f 27/28/2 29/31/2 28/30/2 26/27/2
f 31/33/2 30/32/2 29/31/2 27/28/2
f 14/34/2 31/33/2 27/28/2 13/29/2
f 29/31/2 33/36/2 32/35/2 28/30/2
f 33/36/2 35/6/2 34/5/2 32/35/2
f 37/37/2 36/7/2 35/6/2 33/36/2
f 30/32/2 37/37/2 33/36/2 29/31/2
f 39/39/2 38/38/2 37/37/2 30/32/2
f 38/38/2 40/17/2 36/7/2 37/37/2
f 42/40/2 41/21/2 40/17/2 38/38/2
f 43/41/2 42/40/2 38/38/2 39/39/2
f 18/43/2 44/42/2 31/33/2 14/34/2
f 44/42/2 39/39/2 30/32/2 31/33/2
f 45/44/2 43/41/2 39/39/2 44/42/2
f 19/45/2 45/44/2 44/42/2 18/43/2
f 49/49/3 48/48/3 47/47/3 46/46/3
f 48/48/3 51/51/3 50/50/3 47/47/3
f 35/53/3 36/52/3 51/51/3 48/48/3
f 34/54/3 35/53/3 48/48/3 49/49/3
f 55/26/3 54/29/3 53/4/3 52/1/3
f 54/29/3 57/34/3 56/9/3 53/4/3
f 47/47/3 50/50/3 57/34/3 54/29/3
f 46/46/3 47/47/3 54/29/3 55/26/3
f 57/34/3 59/43/3 58/23/3 56/9/3
f 59/43/3 61/45/3 60/25/3 58/23/3
f 63/56/3 62/55/3 61/45/3 59/43/3
f 50/50/3 63/56/3 59/43/3 57/34/3
f 51/51/3 64/57/3 63/56/3 50/50/3
f 64/57/3 65/58/3 62/55/3 63/56/3
f 40/60/3 41/59/3 65/58/3 64/57/3
f 36/52/3 40/60/3 64/57/3 51/51/3
f 69/64/4 68/63/4 67/62/4 66/61/4
f 68/63/4 71/66/4 70/65/4 67/62/4
f 53/47/4 56/50/4 71/66/4 68/63/4
f 52/46/4 53/47/4 68/63/4 69/64/4
f 73/68/4 72/67/4 4/3/4 1/2/4
f 72/67/4 74/69/4 9/8/4 4/3/4
f 67/62/4 70/65/4 74/69/4 72/67/4
f 66/61/4 67/62/4 72/67/4 73/68/4
f 74/69/4 75/70/4 23/22/4 9/8/4
f 75/70/4 76/71/4 25/24/4 23/22/4
f 78/73/4 77/72/4 76/71/4 75/70/4
f 70/65/4 78/73/4 75/70/4 74/69/4
f 71/66/4 79/74/4 78/73/4 70/65/4
f 79/74/4 80/75/4 77/72/4 78/73/4
f 58/56/4 60/76/4 80/75/4 79/74/4
f 56/50/4 58/56/4 79/74/4 71/66/4
f 84/80/5 83/79/5 82/78/5 81/77/5
f 83/79/5 76/82/5 77/81/5 82/78/5
f 24/84/5 25/83/5 76/82/5 83/79/5
f 21/85/5 24/84/5 83/79/5 84/80/5
f 45/89/5 86/88/5 85/87/5 43/86/5
f 86/88/5 84/80/5 81/77/5 85/87/5
f 20/90/5 21/85/5 84/80/5 86/88/5
f 19/91/5 20/90/5 86/88/5 45/89/5
f 42/95/5 87/94/6 65/93/7 41/92/6
f 87/94/8 88/97/8 62/96/8 65/93/8
f 85/87/5 81/77/5 88/97/5 87/94/5
f 43/86/5 85/87/5 87/94/5 42/95/5
f 88/97/8 89/99/9 61/98/10 62/96/9
f 89/99/5 80/101/5 60/100/5 61/98/5
f 82/78/5 77/81/5 80/101/5 89/99/5
f 81/77/5 82/78/5 89/99/5 88/97/5
f 55/105/11 91/104/11 90/103/11 46/102/11
f 91/104/11 93/107/11 92/106/11 90/103/11
f 69/109/11 66/108/11 93/107/11 91/104/11
f 52/110/11 69/109/11 91/104/11 55/105/11
f 49/114/11 94/113/11 32/112/11 34/111/11
f 94/113/11 95/116/11 28/115/11 32/112/11
f 90/103/11 92/106/11 95/116/11 94/113/11
f 46/102/11 90/103/11 94/113/11 49/114/11
f 95/116/11 96/118/11 26/117/11 28/115/11
f 96/118/11 10/120/11 12/119/11 26/117/11
f 97/122/11 5/121/11 10/120/11 96/118/11
f 92/106/11 97/122/11 96/118/11 95/116/11
f 93/107/11 98/123/11 97/122/11 92/106/11
f 98/123/11 2/124/11 5/121/11 97/122/11
f 73/126/11 1/125/11 2/124/11 98/123/11
f 66/108/11 73/126/11 98/123/11 93/107/11

