# ProBuilder 4.0.4
# https://unity3d.com/unity/features/worldbuilding/probuilder
# 16/05/2019 10:12:33

mtllib ./Cube3.mtl
o Cube3

g Cube3
v -15 -4 3.75
v -20 -4 3.75
v -20 -2.75 3.8125
v -15 -2.75 3.8125
v -25 -4 3.75
v -25 -2.75 3.8125
v -25 -1.5 3.875
v -20 -1.5 3.875
v -15 -1.5 3.875
v -30 -4 3.75
v -30 -2.75 3.8125
v -35 -4 3.75
v -35 -2.75 3.8125
v -35 -1.5 3.875
v -30 -1.5 3.875
v -30 -0.25 3.9375
v -25 -0.25 3.9375
v -35 -0.25 3.9375
v -35 1 4
v -30 1 4
v -25 1 4
v -20 -0.25 3.9375
v -15 -0.25 3.9375
v -20 1 4
v -15.88191 1 4
v -35 -2.75 2.234375
v -35 -1.5 2.28125
v -35 -4 2.1875
v -35 -4 0.625
v -35 -2.75 0.65625
v -35 -1.5 0.6875
v -35 -4 -0.9375
v -35 -2.75 -0.921875
v -35 -4 -2.5
v -35 -2.75 -2.5
v -35 -1.5 -2.5
v -35 -1.5 -0.90625
v -35 -0.25 -0.890625
v -35 -0.25 0.71875
v -35 -0.25 -2.5
v -35 1 -2.5
v -35 1 -0.875
v -35 1 0.75
v -35 -0.25 2.328125
v -35 1 2.375
v -25 -4 -2.5
v -25 -2.75 -2.5
v -30 -2.75 -2.5
v -30 -4 -2.5
v -25 -1.5 -2.5
v -30 -1.5 -2.5
v -15 -4 -2.5
v -15 -2.75 -2.5
v -20 -2.75 -2.5
v -20 -4 -2.5
v -15 -1.5 -2.5
v -20 -1.5 -2.5
v -15.95208 -0.25 -2.5
v -20 -0.25 -2.5
v -16.02004 1 -2.5
v -20 1 -2.5
v -25 1 -1.204515
v -25 -0.25 -2.5
v -30 -0.25 -2.5
v -30 1 -2.5
v -15 -4 0.625
v -15 -2.75 0.65625
v -15 -2.75 -0.921875
v -15 -4 -0.9375
v -15 -1.5 0.6875
v -15 -1.5 -0.90625
v -15 -2.75 2.234375
v -15 -1.5 2.28125
v -15 -4 2.1875
v -15 1 0.75
v -15 -0.25 0.71875
v -15 -0.25 2.328125
v -15 1 2.375
v -15 -0.25 -0.890625
v -15 1 -0.875
v -25 1 0.75
v -20 1 0.75
v -20 1 2.375
v -25 1 2.375
v -30 1 0.75
v -30 1 2.375
v -30 1 -0.875
v -25 1 -0.875
v -20 1 -0.875
v -25 -4 -0.9375
v -20 -4 -0.9375
v -25 -4 0.625
v -20 -4 0.625
v -30 -4 -0.9375
v -30 -4 0.625
v -30 -4 2.1875
v -25 -4 2.1875
v -20 -4 2.1875

vt 9 0.187266
vt 4 0.187266
vt 4 1.438828
vt 9 1.438828
vt -1 0.187266
vt -1 1.438828
vt -1 2.690389
vt 4 2.690389
vt 9 2.690389
vt -6 0.187266
vt -6 1.438828
vt -11 0.187266
vt -11 1.438828
vt -11 2.690389
vt -6 2.690389
vt -6 3.941951
vt -1 3.941951
vt -11 3.941951
vt -11 5.193512
vt -6 5.193512
vt -1 5.193512
vt 4 3.941951
vt 9 3.941951
vt 4 5.193512
vt 8.118089 5.193512
vt 3.875 2.5
vt 3.8125 1.25
vt 2.234375 1.25
vt 2.28125 2.5
vt 3.75 0
vt 2.1875 0
vt 0.625 0
vt 0.65625 1.25
vt 0.6875 2.5
vt -0.9375 0
vt -0.921875 1.25
vt -2.5 0
vt -2.5 1.25
vt -2.5 2.5
vt -0.90625 2.5
vt -0.890625 3.75
vt 0.71875 3.75
vt -2.5 3.75
vt -2.5 5
vt -0.875 5
vt 0.75 5
vt 4 5
vt 3.9375 3.75
vt 2.328125 3.75
vt 2.375 5
vt 0.9882088 -0.1132246
vt 0.9882088 1.135498
vt 5.988153 1.134433
vt 5.988153 -0.1142896
vt 0.9882088 2.38422
vt 5.988153 2.383155
vt 10.9881 2.38209
vt 10.9881 1.133368
vt 10.9881 -0.1153546
vt -9.011681 -0.1110945
vt -9.011681 1.137628
vt -4.011736 1.136563
vt -4.011736 -0.1121595
vt -9.011681 2.38635
vt -4.011736 2.385285
vt -8.059611 3.634869
vt -4.011736 3.634007
vt -7.991655 4.883577
vt -4.011736 4.882729
vt 0.9943132 4.940226
vt 0.9882088 3.632942
vt 5.988153 3.631877
vt 5.988153 4.880599
vt 10.9881 4.879534
vt 10.9881 3.630812
vt -1.21867 -0.007387536
vt -1.249851 1.242614
vt 0.3248208 1.242527
vt 0.3404117 -0.007472912
vt -1.281033 2.492615
vt 0.30923 2.492528
vt 1.899493 2.492441
vt 1.899493 1.242441
vt 1.899493 -0.007558287
vt -2.824523 1.2427
vt -2.871296 2.492702
vt -2.777751 -0.007302161
vt -4.336832 -0.007216786
vt -4.399195 1.242786
vt -4.461558 2.492789
vt -1.343396 4.992618
vt -1.312214 3.742616
vt -2.918068 3.742704
vt -2.96484 4.992706
vt -4.523921 3.742792
vt -4.527977 4.993522
vt 0.2936392 3.742528
vt 0.2780484 4.992529
vt 1.966933 4.993281
vt 1.96244 3.743226
vt 1 0.75
vt -4 0.75
vt -4 2.375
vt 1 2.375
vt -9 0.75
vt -9 2.375
vt -8.118089 4
vt -4 4
vt 1 4
vt 11 0.75
vt 6 0.75
vt 6 2.375
vt 11 2.375
vt 6 4
vt 11 4
vt 11 -2.5
vt 6 -2.5
vt 6 -0.875
vt 11 -0.875
vt 1 -1.204515
vt 1 -0.875
vt -4 -2.5
vt -4 -0.875
vt -7.979963 -2.5
vt -9 -0.875
vt -1 -2.5
vt -1 -0.9375
vt 4 -0.9375
vt 4 -2.5
vt -1 0.625
vt 4 0.625
vt 9 0.625
vt 9 -0.9375
vt 9 -2.5
vt -11 -2.5
vt -11 -0.9375
vt -6 -0.9375
vt -6 -2.5
vt -11 0.625
vt -6 0.625
vt -11 2.1875
vt -6 2.1875
vt -11 3.75
vt -6 3.75
vt -1 3.75
vt -1 2.1875
vt 4 2.1875
vt 4 3.75
vt 9 3.75
vt 9 2.1875

vn 0 -0.04993762 0.9987524
vn -1 0 0
vn 0 0 -1
vn -0.2508149 0 -0.9680351
vn -0.1254075 0.3598135 -0.831198
vn 0 0.719627 -0.6943609
vn 0.08853205 0.3541282 -0.8416947
vn 0.1770641 0.7082564 -0.6833895
vn 1 0 0
vn 0.8774518 0.2560608 0.2048486
vn 0.7549037 0.5121216 0.4096973
vn 0.8469446 0.006645496 -0.5316398
vn 0.8533381 0.02669263 -0.5201214
vn 0.8597316 0.04673977 -0.508603
vn 0.8280895 0.3061431 -0.2545746
vn 0.7955241 0.6059219 0
vn 0.8606548 0.006364365 -0.5091493
vn 0 1 0
vn 0 -1 0

g Cube3
usemtl MetricsProbuilder
f 4/4/1 3/3/1 2/2/1 1/1/1
f 3/3/1 6/6/1 5/5/1 2/2/1
f 8/8/1 7/7/1 6/6/1 3/3/1
f 9/9/1 8/8/1 3/3/1 4/4/1
f 6/6/1 11/11/1 10/10/1 5/5/1
f 11/11/1 13/13/1 12/12/1 10/10/1
f 15/15/1 14/14/1 13/13/1 11/11/1
f 7/7/1 15/15/1 11/11/1 6/6/1
f 17/17/1 16/16/1 15/15/1 7/7/1
f 16/16/1 18/18/1 14/14/1 15/15/1
f 20/20/1 19/19/1 18/18/1 16/16/1
f 21/21/1 20/20/1 16/16/1 17/17/1
f 23/23/1 22/22/1 8/8/1 9/9/1
f 22/22/1 17/17/1 7/7/1 8/8/1
f 24/24/1 21/21/1 17/17/1 22/22/1
f 25/25/1 24/24/1 22/22/1 23/23/1
f 27/29/2 26/28/2 13/27/2 14/26/2
f 26/28/2 28/31/2 12/30/2 13/27/2
f 30/33/2 29/32/2 28/31/2 26/28/2
f 31/34/2 30/33/2 26/28/2 27/29/2
f 33/36/2 32/35/2 29/32/2 30/33/2
f 33/36/2 35/38/2 34/37/2 32/35/2
f 37/40/2 36/39/2 35/38/2 33/36/2
f 37/40/2 33/36/2 30/33/2 31/34/2
f 38/41/2 37/40/2 31/34/2 39/42/2
f 38/41/2 40/43/2 36/39/2 37/40/2
f 42/45/2 41/44/2 40/43/2 38/41/2
f 42/45/2 38/41/2 39/42/2 43/46/2
f 45/50/2 44/49/2 18/48/2 19/47/2
f 44/49/2 27/29/2 14/26/2 18/48/2
f 39/42/2 31/34/2 27/29/2 44/49/2
f 43/46/2 39/42/2 44/49/2 45/50/2
f 49/54/3 48/53/3 47/52/3 46/51/3
f 48/53/3 51/56/3 50/55/3 47/52/3
f 35/58/3 36/57/3 51/56/3 48/53/3
f 34/59/3 35/58/3 48/53/3 49/54/3
f 55/63/3 54/62/3 53/61/3 52/60/3
f 54/62/3 57/65/3 56/64/3 53/61/3
f 47/52/3 50/55/3 57/65/3 54/62/3
f 46/51/3 47/52/3 54/62/3 55/63/3
f 57/65/3 59/67/3 58/66/3 56/64/3
f 59/67/3 61/69/3 60/68/3 58/66/3
f 63/71/6 62/70/5 61/69/4 59/67/5
f 50/55/3 63/71/3 59/67/3 57/65/3
f 51/56/3 64/72/3 63/71/3 50/55/3
f 64/72/3 65/73/7 62/70/8 63/71/7
f 40/75/3 41/74/3 65/73/3 64/72/3
f 36/57/3 40/75/3 64/72/3 51/56/3
f 67/77/9 66/76/9 69/79/9 68/78/9
f 70/80/9 67/77/9 68/78/9 71/81/9
f 53/83/9 56/82/9 71/81/9 68/78/9
f 52/84/9 53/83/9 68/78/9 69/79/9
f 73/86/9 72/85/9 67/77/9 70/80/9
f 72/85/9 74/87/9 66/76/9 67/77/9
f 4/89/9 1/88/9 74/87/9 72/85/9
f 9/90/9 4/89/9 72/85/9 73/86/9
f 78/94/9 77/93/9 76/92/9 75/91/9
f 77/93/9 73/86/9 70/80/9 76/92/9
f 23/95/9 9/90/9 73/86/9 77/93/9
f 25/96/11 23/95/10 77/93/9 78/94/10
f 76/92/9 70/80/9 71/81/9 79/97/9
f 75/91/9 76/92/9 79/97/9 80/98/9
f 58/100/14 60/99/13 80/98/12 79/97/13
f 56/82/16 58/100/15 79/97/17 71/81/15
f 84/104/18 83/103/18 82/102/18 81/101/18
f 83/103/18 78/106/18 75/105/18 82/102/18
f 24/108/18 25/107/18 78/106/18 83/103/18
f 21/109/18 24/108/18 83/103/18 84/104/18
f 45/113/18 86/112/18 85/111/18 43/110/18
f 86/112/18 84/104/18 81/101/18 85/111/18
f 20/114/18 21/109/18 84/104/18 86/112/18
f 19/115/18 20/114/18 86/112/18 45/113/18
f 42/119/18 87/118/18 65/117/18 41/116/18
f 87/118/18 88/121/18 62/120/18 65/117/18
f 85/111/18 81/101/18 88/121/18 87/118/18
f 43/110/18 85/111/18 87/118/18 42/119/18
f 88/121/18 89/123/18 61/122/18 62/120/18
f 89/123/18 80/125/18 60/124/18 61/122/18
f 82/102/18 75/105/18 80/125/18 89/123/18
f 81/101/18 82/102/18 89/123/18 88/121/18
f 55/129/19 91/128/19 90/127/19 46/126/19
f 91/128/19 93/131/19 92/130/19 90/127/19
f 69/133/19 66/132/19 93/131/19 91/128/19
f 52/134/19 69/133/19 91/128/19 55/129/19
f 49/138/19 94/137/19 32/136/19 34/135/19
f 94/137/19 95/140/19 29/139/19 32/136/19
f 90/127/19 92/130/19 95/140/19 94/137/19
f 46/126/19 90/127/19 94/137/19 49/138/19
f 95/140/19 96/142/19 28/141/19 29/139/19
f 96/142/19 10/144/19 12/143/19 28/141/19
f 97/146/19 5/145/19 10/144/19 96/142/19
f 92/130/19 97/146/19 96/142/19 95/140/19
f 93/131/19 98/147/19 97/146/19 92/130/19
f 98/147/19 2/148/19 5/145/19 97/146/19
f 74/150/19 1/149/19 2/148/19 98/147/19
f 66/132/19 74/150/19 98/147/19 93/131/19

