# ProBuilder 4.0.4
# https://unity3d.com/unity/features/worldbuilding/probuilder
# 16/05/2019 10:12:33

mtllib ./Cube_(53).mtl
o Cube (53)

g Cube (53)
v -286 82 2
v -287 82 2
v -286 92 2
v -287 92 2
v -287 82 -3
v -287 92 -3
v -286 82 -3
v -286 92 -3

vt 0 -40
vt -1 -40
vt 0 -30
vt -1 -30
vt 2 -40
vt -3 -40
vt 2 -30
vt -3 -30
vt 1 -40
vt 1 -30
vt 3 -40
vt -2 -40
vt 3 -30
vt -2 -30
vt 0 2
vt 1 2
vt 0 -3
vt 1 -3
vt -1 -3
vt -1 2

vn 0 0 1
vn -1 0 0
vn 0 0 -1
vn 1 0 0
vn 0 1 0
vn 0 -1 0

g Cube (53)
usemtl TrapBlockOutMaterial
f 3/3/1 4/4/1 2/2/1 1/1/1
f 4/7/2 6/8/2 5/6/2 2/5/2
f 6/10/3 8/3/3 7/1/3 5/9/3
f 8/13/4 3/14/4 1/12/4 7/11/4
f 8/17/5 6/18/5 4/16/5 3/15/5
f 1/15/6 2/20/6 5/19/6 7/17/6

