# ProBuilder 4.0.4
# https://unity3d.com/unity/features/worldbuilding/probuilder
# 16/05/2019 10:12:33

mtllib ./Cube_(45).mtl
o Cube (45)

g Cube (45)
v -210 67.00001 0
v -210 68.00001 0
v -200 67 0
v -200 68.00001 0
v -210 68.00001 -3
v -200 68.00001 -3
v -210 67.00001 -3
v -200 67 -3

vt -1.000006 -29
vt -2.000006 -29
vt -0.9999994 -19
vt -2.000007 -19
vt 0 -29
vt -3 -29
vt 0 -19
vt -3 -19
vt 2.000006 -29
vt 1.000006 -29
vt 2.000007 -19
vt 0.9999994 -19
vt 3 -29
vt 3 -19
vt 0.9999994 0
vt 2.000007 0
vt 0.9999994 -3
vt 2.000007 -3
vt -1.000006 -3
vt -2.000006 -3
vt -1.000006 0
vt -2.000006 0

vn 0 0 1
vn -1.421085E-14 1 0
vn 0 0 -1
vn -7.629395E-07 -1 0
vn 1 -1.192093E-07 0
vn -1 1.192093E-07 0

g Cube (45)
usemtl TrapBlockOutMaterial
f 3/3/1 4/4/1 2/2/1 1/1/1
f 4/7/2 6/8/2 5/6/2 2/5/2
f 6/11/3 8/12/3 7/10/3 5/9/3
f 8/14/4 3/7/4 1/5/4 7/13/4
f 8/17/5 6/18/5 4/16/5 3/15/5
f 1/21/6 2/22/6 5/20/6 7/19/6

