# ProBuilder 4.0.4
# https://unity3d.com/unity/features/worldbuilding/probuilder
# 16/05/2019 10:12:33

mtllib ./Cube_(32).mtl
o Cube (32)

g Cube (32)
v -209 70 0
v -210 70 0
v -209 89 0
v -210 89 0
v -210 70 -2.6
v -210 89 -2.6
v -209 70 -2.6
v -209 89 -2.6

vt -1 -18
vt -2 -18
vt -1 1
vt -2 1
vt 0 -18
vt -2.6 -18
vt 0 1
vt -2.6 1
vt 2 -18
vt 1 -18
vt 2 1
vt 1 1
vt 2.6 -18
vt 2.6 1
vt 1 0
vt 2 0
vt 1 -2.6
vt 2 -2.6
vt -1 -2.6
vt -2 -2.6
vt -1 0
vt -2 0

vn 0 0 1
vn -1 0 0
vn 0 0 -1
vn 1 0 0
vn 0 1 0
vn 0 -1 0

g Cube (32)
usemtl TrapBlockOutMaterial
f 3/3/1 4/4/1 2/2/1 1/1/1
f 4/7/2 6/8/2 5/6/2 2/5/2
f 6/11/3 8/12/3 7/10/3 5/9/3
f 8/14/4 3/7/4 1/5/4 7/13/4
f 8/17/5 6/18/5 4/16/5 3/15/5
f 1/21/6 2/22/6 5/20/6 7/19/6

