# ProBuilder 4.0.4
# https://unity3d.com/unity/features/worldbuilding/probuilder
# 16/05/2019 10:12:33

mtllib ./Cube9.mtl
o Cube9

g Cube9
v -135 89 2
v -210 89 2
v -135 90 2
v -210 90 2
v -210 89 -3
v -210 90 -3
v -135 89 -3
v -135 90 -3

vt -5 0
vt -80 0
vt -5 1
vt -80 1
vt 2 0
vt -3 0
vt 2 1
vt -3 1
vt 80 0
vt 5 0
vt 80 1
vt 5 1
vt 3 0
vt -2 0
vt 3 1
vt -2 1
vt 5 2
vt 80 2
vt 5 -3
vt 80 -3
vt -5 -3
vt -80 -3
vt -5 2
vt -80 2

vn 0 0 1
vn -1 0 0
vn 0 0 -1
vn 1 0 0
vn 0 1 0
vn 0 -1 0

g Cube9
usemtl MetricsProbuilder
f 3/3/1 4/4/1 2/2/1 1/1/1
f 4/7/2 6/8/2 5/6/2 2/5/2
f 6/11/3 8/12/3 7/10/3 5/9/3
f 8/15/4 3/16/4 1/14/4 7/13/4
f 8/19/5 6/20/5 4/18/5 3/17/5
f 1/23/6 2/24/6 5/22/6 7/21/6

