# ProBuilder 4.0.4
# https://unity3d.com/unity/features/worldbuilding/probuilder
# 16/05/2019 10:12:33

mtllib ./Cube_(11).mtl
o Cube (11)

g Cube (11)
v -48 39 2
v -51 42 2
v -48 43 2
v -51 43 2
v -51 42 -3
v -51 43 -3
v -48 39 -3
v -48 43 -3

vt 0 -3
vt -3 0
vt 0 1
vt -3 1
vt 2 0
vt 2 1
vt 3 0
vt 3 1
vt 3 -3
vt -2 -3
vt -2 1
vt 0 2
vt 3 2
vt 2.12132 -3
vt -2.12132 -3
vt 2.12132 2
vt -2.12132 2

vn 0 0 1
vn -1 0 0
vn 0 0 -1
vn 1 0 0
vn 0 1 0
vn -0.7071068 -0.7071068 0

g Cube (11)
usemtl MetricsProbuilder
f 3/3/1 4/4/1 2/2/1 1/1/1
f 4/6/2 6/4/2 5/2/2 2/5/2
f 6/8/3 8/3/3 7/1/3 5/7/3
f 8/8/4 3/11/4 1/10/4 7/9/4
f 8/1/5 6/9/5 4/13/5 3/12/5
f 1/16/6 2/17/6 5/15/6 7/14/6

