# ProBuilder 4.0.4
# https://unity3d.com/unity/features/worldbuilding/probuilder
# 16/05/2019 10:12:33

mtllib ./Cube_(37).mtl
o Cube (37)

g Cube (37)
v -216 48 2
v -224 48 2
v -216 60 2
v -224 60 2
v -224 48 -3
v -224 60 -3
v -216 48 -3
v -216 60 -3

vt 2 -11
vt -6 -11
vt 2 1
vt -6 1
vt -3 -11
vt -3 1
vt 6 -11
vt -2 -11
vt 6 1
vt -2 1
vt 3 -11
vt 3 1
vt -2 2
vt 6 2
vt -2 -3
vt 6 -3
vt 2 -3
vt -6 -3
vt 2 2
vt -6 2

vn 0 0 1
vn -1 0 0
vn 0 0 -1
vn 1 0 0
vn 0 1 0
vn 0 -1 0

g Cube (37)
usemtl MetricsProbuilder
f 3/3/1 4/4/1 2/2/1 1/1/1
f 4/3/2 6/6/2 5/5/2 2/1/2
f 6/9/3 8/10/3 7/8/3 5/7/3
f 8/12/4 3/10/4 1/8/4 7/11/4
f 8/15/5 6/16/5 4/14/5 3/13/5
f 1/19/6 2/20/6 5/18/6 7/17/6

