# ProBuilder 4.0.4
# https://unity3d.com/unity/features/worldbuilding/probuilder
# 16/05/2019 10:12:33

mtllib ./Cube2.mtl
o Cube2

g Cube2
v 17 -4.02 3.625
v 9 -4.02 3.8125
v 9 -3.265 3.8125
v 17 -3.265 3.625
v 1 -4.02 4
v 1 -3.265 4
v 1 -2.51 4
v 9 -2.51 3.8125
v 17 -2.51 3.625
v -7 -4.02 4.1875
v -7 -3.265 4.1875
v -15 -4.02 4.375
v -15 -3.265 4.375
v -15 -2.51 4.375
v -7 -2.51 4.1875
v -7 -1.755 4.1875
v 1 -1.755 4
v -15 -1.755 4.375
v -15 -1 4.375
v -7 -0.9304218 4.1875
v 1 -1 4
v 9 -1.755 3.8125
v 17 -1.755 3.625
v 9 -1 3.8125
v 17 -1 3.625
v -15 -4.02 2.65625
v -15 -3.265 2.65625
v -15 -4.02 0.9375
v -15 -3.265 0.9375
v -15 -2.51 0.9375
v -15 -2.51 2.65625
v -15 -4.02 -0.78125
v -15 -3.265 -0.78125
v -15 -4.02 -2.5
v -15 -3.265 -2.5
v -15 -2.51 -2.5
v -15 -2.51 -0.78125
v -15 -1.755 -0.78125
v -15 -1.755 0.9375
v -15 -1.755 -2.5
v -15 -1 -2.5
v -15 -1 -0.78125
v -15 -1 0.9375
v -15 -1.755 2.65625
v -15 -1 2.65625
v 1 -4.02 -2.5
v 1 -3.265 -2.5
v -7 -3.265 -2.5
v -7 -4.02 -2.5
v 1 -2.51 -2.868419
v -7 -2.51 -3.979389
v 17 -4.02 -2.5
v 17 -3.265 -2.5
v 9 -3.265 -3.060801
v 9 -4.02 -2.5
v 17 -2.51 -2.5
v 9 -2.51 -3.060801
v 17 -1.755 -2.5
v 9 -1.755 -3.060801
v 17 -1 -2.5
v 9 -1 -1.558924
v 1 -1 -2.5
v 1 -1.755 -3.291316
v -7 -1.755 -3.291316
v -7 -1 -2.5
v 17 -4.02 0.5625
v 17 -3.265 0.5625
v 17 -3.265 -0.96875
v 17 -4.02 -0.96875
v 17 -2.51 0.5625
v 17 -2.51 -0.96875
v 17 -3.265 2.09375
v 17 -4.02 2.09375
v 17 -2.51 2.09375
v 17 -1.755 2.09375
v 17 -1 2.09375
v 17 -1 0.5625
v 17 -1.755 0.5625
v 17 -1.755 -0.96875
v 17 -1 -0.96875
v 1 -1 0.75
v 9 -1 0.65625
v 9 -1 2.234375
v 1 -1 2.375
v -7 -1 0.84375
v -7 -1 2.515625
v -7 -1 -0.828125
v 1 -1 -0.875
v 9 -1 -0.921875
v 1 -4.02 -0.875
v 9 -4.02 -0.921875
v 1 -4.02 0.75
v 9 -4.02 0.65625
v -7 -4.02 -0.828125
v -7 -4.02 0.84375
v -7 -4.02 2.515625
v 1 -4.02 2.375
v 9 -4.02 2.234375

vt 1.914513 -4.768372E-07
vt -6.087684 -4.768372E-07
vt -6.087684 0.7549996
vt 1.914513 0.7549996
vt -14.08988 -4.768372E-07
vt -14.08988 0.7549996
vt -14.08988 1.51
vt -6.087684 1.51
vt 1.914513 1.51
vt -22.09208 -4.768372E-07
vt -22.09208 0.7549996
vt -30.09427 -4.768372E-07
vt -30.09427 0.7549996
vt -30.09427 1.51
vt -22.09208 1.51
vt -22.09208 2.265
vt -14.08988 2.265
vt -30.09427 2.265
vt -30.09427 3.02
vt -22.09208 3.089578
vt -14.08988 3.02
vt -6.087684 2.265
vt 1.914513 2.265
vt -6.087684 3.02
vt 1.914513 3.02
vt 4.375 -4.768372E-07
vt 2.65625 -4.768372E-07
vt 2.65625 0.7549996
vt 4.375 0.7549996
vt 0.9375 -4.768372E-07
vt 0.9375 0.7549996
vt 0.9375 1.51
vt 2.65625 1.51
vt 4.375 1.51
vt -0.78125 -4.768372E-07
vt -0.78125 0.7549996
vt -2.5 -4.768372E-07
vt -2.5 0.7549996
vt -2.5 1.51
vt -0.78125 1.51
vt -0.78125 2.265
vt 0.9375 2.265
vt -2.5 2.265
vt -2.5 3.02
vt -0.78125 3.02
vt 0.9375 3.02
vt 2.65625 2.265
vt 4.375 2.265
vt 2.65625 3.02
vt 4.375 3.02
vt 14.01118 -0.1083888
vt 14.01118 0.645864
vt 22.0111 0.6474757
vt 22.0111 -0.106777
vt 14.01285 1.383728
vt 22.0178 1.33592
vt 30.01101 1.40334
vt 30.01101 0.6490874
vt 30.01101 -0.1051653
vt -1.988657 -0.1116122
vt -1.988657 0.6426405
vt 6.013801 0.6193058
vt 6.011261 -0.1100005
vt -1.988657 1.396893
vt 6.013801 1.373559
vt -1.988657 2.151146
vt 6.013801 2.127811
vt -1.988657 2.905399
vt 6.006999 2.948873
vt 14.01118 2.908622
vt 14.01476 2.119169
vt 22.01468 2.120781
vt 22.0111 2.910234
vt 30.01101 2.911846
vt 30.01101 2.157593
vt -0.5625 -4.768372E-07
vt -0.5625 0.7549996
vt 0.96875 0.7549996
vt 0.96875 -4.768372E-07
vt -0.5625 1.51
vt 0.96875 1.51
vt 2.5 1.51
vt 2.5 0.7549996
vt 2.5 -4.768372E-07
vt -3.625 -4.768372E-07
vt -3.625 0.7549996
vt -2.09375 0.7549996
vt -2.09375 -4.768372E-07
vt -3.625 1.51
vt -2.09375 1.51
vt -3.625 2.265
vt -2.09375 2.265
vt -3.625 3.02
vt -2.09375 3.02
vt -0.5625 3.02
vt -0.5625 2.265
vt 0.96875 2.265
vt 0.96875 3.02
vt 2.5 3.02
vt 2.5 2.265
vt 13.99986 0.7578479
vt 5.999862 0.6640972
vt 5.999862 2.242217
vt 13.99986 2.382842
vt -2.000138 0.5703467
vt -2.000138 2.101591
vt -2.000138 3.632836
vt 5.999862 3.820337
vt 13.99986 4.007837
vt 29.99986 0.9453492
vt 21.99986 0.8515985
vt 21.99986 2.523468
vt 29.99986 2.664093
vt 21.99986 4.195518
vt 29.99986 4.382837
vt 29.99986 -2.492139
vt 21.99986 -2.49214
vt 21.99986 -0.8202708
vt 29.99986 -0.773395
vt 13.99986 -2.492141
vt 13.99986 -0.8671466
vt 5.999862 -1.551069
vt 5.999862 -0.9140224
vt -2.000138 -2.492143
vt -2.000138 -0.9608982
vt -14 -2.5
vt -14 -0.875
vt -6 -0.921875
vt -6 -2.5
vt -14 0.75
vt -6 0.65625
vt 2 0.5625
vt 2 -0.96875
vt 2 -2.5
vt -30 -2.5
vt -30 -0.78125
vt -22 -0.828125
vt -22 -2.5
vt -30 0.9375
vt -22 0.84375
vt -30 2.65625
vt -22 2.515625
vt -30 4.375
vt -22 4.1875
vt -14 4
vt -14 2.375
vt -6 2.234375
vt -6 3.8125
vt 2 3.625
vt 2 2.09375

vn 0.02343107 0 0.9997255
vn -1 0 0
vn 0 0 -1
vn 0.06192201 -0.6629399 -0.6731806
vn 0.123844 -0.4351692 -0.8917906
vn 0 -0.8907107 -0.4545707
vn -0.0837654 -0.8875803 -0.4529731
vn -0.0418827 -0.4437901 -0.7264866
vn 0.03496423 -0.2981426 -0.9001623
vn 0.06992847 0 -0.997552
vn 0 -0.5962852 -0.8027727
vn -0.02404072 0 -0.999711
vn -0.04345782 -0.2188388 -0.948321
vn -0.06287492 -0.4376775 -0.896931
vn -0.02809276 -0.2976716 -0.9007523
vn -0.05618553 -0.5953432 -0.8015046
vn -0.04267972 0.446508 -0.7210376
vn -0.116829 0 -0.993152
vn 0.03146955 0.8930161 -0.4489231
vn 0.05276144 0.8922141 -0.44852
vn 0.03632418 0.8077924 -0.5693467
vn 0.01988692 0.7233707 -0.6901734
vn 0.00391322 -0.2442903 -0.9359258
vn -0.02097598 -0.4885806 -0.8722666
vn 0.02880242 0 -0.9995852
vn 0.05105209 0.09069002 -0.8038512
vn 0 -0.4886881 -0.8724586
vn 0.1021042 0.6700681 -0.7352438
vn 0 0.7235138 -0.6903099
vn -0.04921704 0.3617569 -0.8427268
vn -0.09843408 0 -0.9951436
vn -0.1273771 0.3358978 -0.8602337
vn -0.1818405 0 -0.983328
vn -0.07291373 0.6717956 -0.7371393
vn 1 0 0
vn 0 1 0
vn 0.003857484 0.9995527 -0.02078981
vn 0.007714968 0.9991054 -0.04157962
vn -0.004713928 0.9995486 -0.02079042
vn -0.008696943 0.9999622 0
vn -0.0007309134 0.9991349 -0.04158085
vn 0 -1 0

g Cube2
usemtl MetricsProbuilder
f 4/4/1 3/3/1 2/2/1 1/1/1
f 3/3/1 6/6/1 5/5/1 2/2/1
f 8/8/1 7/7/1 6/6/1 3/3/1
f 9/9/1 8/8/1 3/3/1 4/4/1
f 6/6/1 11/11/1 10/10/1 5/5/1
f 11/11/1 13/13/1 12/12/1 10/10/1
f 15/15/1 14/14/1 13/13/1 11/11/1
f 7/7/1 15/15/1 11/11/1 6/6/1
f 17/17/1 16/16/1 15/15/1 7/7/1
f 16/16/1 18/18/1 14/14/1 15/15/1
f 20/20/1 19/19/1 18/18/1 16/16/1
f 21/21/1 20/20/1 16/16/1 17/17/1
f 23/23/1 22/22/1 8/8/1 9/9/1
f 22/22/1 17/17/1 7/7/1 8/8/1
f 24/24/1 21/21/1 17/17/1 22/22/1
f 25/25/1 24/24/1 22/22/1 23/23/1
f 13/29/2 27/28/2 26/27/2 12/26/2
f 27/28/2 29/31/2 28/30/2 26/27/2
f 31/33/2 30/32/2 29/31/2 27/28/2
f 14/34/2 31/33/2 27/28/2 13/29/2
f 29/31/2 33/36/2 32/35/2 28/30/2
f 33/36/2 35/38/2 34/37/2 32/35/2
f 37/40/2 36/39/2 35/38/2 33/36/2
f 30/32/2 37/40/2 33/36/2 29/31/2
f 39/42/2 38/41/2 37/40/2 30/32/2
f 38/41/2 40/43/2 36/39/2 37/40/2
f 42/45/2 41/44/2 40/43/2 38/41/2
f 43/46/2 42/45/2 38/41/2 39/42/2
f 18/48/2 44/47/2 31/33/2 14/34/2
f 44/47/2 39/42/2 30/32/2 31/33/2
f 45/49/2 43/46/2 39/42/2 44/47/2
f 19/50/2 45/49/2 44/47/2 18/48/2
f 49/54/3 48/53/3 47/52/3 46/51/3
f 48/53/6 51/56/4 50/55/5 47/52/4
f 35/58/3 36/57/8 51/56/7 48/53/8
f 34/59/3 35/58/3 48/53/3 49/54/3
f 55/63/11 54/62/9 53/61/10 52/60/9
f 54/62/10 57/65/10 56/64/10 53/61/10
f 47/52/14 50/55/13 57/65/12 54/62/13
f 46/51/3 47/52/15 54/62/16 55/63/15
f 57/65/10 59/67/10 58/66/10 56/64/10
f 59/67/19 61/69/17 60/68/18 58/66/17
f 63/71/22 62/70/21 61/69/20 59/67/21
f 50/55/24 63/71/23 59/67/25 57/65/23
f 51/56/28 64/72/26 63/71/27 50/55/26
f 64/72/29 65/73/29 62/70/29 63/71/29
f 40/75/31 41/74/30 65/73/29 64/72/30
f 36/57/33 40/75/32 64/72/34 51/56/32
f 69/79/35 68/78/35 67/77/35 66/76/35
f 68/78/35 71/81/35 70/80/35 67/77/35
f 53/83/35 56/82/35 71/81/35 68/78/35
f 52/84/35 53/83/35 68/78/35 69/79/35
f 73/88/35 72/87/35 4/86/35 1/85/35
f 72/87/35 74/90/35 9/89/35 4/86/35
f 67/77/35 70/80/35 74/90/35 72/87/35
f 66/76/35 67/77/35 72/87/35 73/88/35
f 74/90/35 75/92/35 23/91/35 9/89/35
f 75/92/35 76/94/35 25/93/35 23/91/35
f 78/96/35 77/95/35 76/94/35 75/92/35
f 70/80/35 78/96/35 75/92/35 74/90/35
f 71/81/35 79/97/35 78/96/35 70/80/35
f 79/97/35 80/98/35 77/95/35 78/96/35
f 58/100/35 60/99/35 80/98/35 79/97/35
f 56/82/35 58/100/35 79/97/35 71/81/35
f 84/104/36 83/103/36 82/102/36 81/101/36
f 83/103/36 76/106/36 77/105/36 82/102/36
f 24/108/36 25/107/36 76/106/36 83/103/36
f 21/109/36 24/108/36 83/103/36 84/104/36
f 45/113/36 86/112/36 85/111/36 43/110/36
f 86/112/36 84/104/36 81/101/36 85/111/36
f 20/114/38 21/109/37 84/104/36 86/112/37
f 19/115/40 20/114/39 86/112/41 45/113/39
f 42/119/36 87/118/36 65/117/36 41/116/36
f 87/118/36 88/121/36 62/120/36 65/117/36
f 85/111/36 81/101/36 88/121/36 87/118/36
f 43/110/36 85/111/36 87/118/36 42/119/36
f 88/121/36 89/123/36 61/122/36 62/120/36
f 89/123/36 80/125/36 60/124/36 61/122/36
f 82/102/36 77/105/36 80/125/36 89/123/36
f 81/101/36 82/102/36 89/123/36 88/121/36
f 55/129/42 91/128/42 90/127/42 46/126/42
f 91/128/42 93/131/42 92/130/42 90/127/42
f 69/133/42 66/132/42 93/131/42 91/128/42
f 52/134/42 69/133/42 91/128/42 55/129/42
f 49/138/42 94/137/42 32/136/42 34/135/42
f 94/137/42 95/140/42 28/139/42 32/136/42
f 90/127/42 92/130/42 95/140/42 94/137/42
f 46/126/42 90/127/42 94/137/42 49/138/42
f 95/140/42 96/142/42 26/141/42 28/139/42
f 96/142/42 10/144/42 12/143/42 26/141/42
f 97/146/42 5/145/42 10/144/42 96/142/42
f 92/130/42 97/146/42 96/142/42 95/140/42
f 93/131/42 98/147/42 97/146/42 92/130/42
f 98/147/42 2/148/42 5/145/42 97/146/42
f 73/150/42 1/149/42 2/148/42 98/147/42
f 66/132/42 73/150/42 98/147/42 93/131/42

