# ProBuilder 4.0.4
# https://unity3d.com/unity/features/worldbuilding/probuilder
# 16/05/2019 10:12:33

mtllib ./Cube_(7).mtl
o Cube (7)

g Cube (7)
v -51 42 1.5
v -80 42 1.5
v -51 43 1.5
v -80 43 1.5
v -80 42 -3
v -80 43 -3
v -51 42 -3
v -51 43 -3

vt 0 0
vt -29 0
vt 0 1
vt -29 1
vt 1.5 0
vt -3 0
vt 1.5 1
vt -3 1
vt 29 0
vt 29 1
vt 3 0
vt -1.5 0
vt 3 1
vt -1.5 1
vt 0 1.5
vt 29 1.5
vt 0 -3
vt 29 -3
vt -29 -3
vt -29 1.5

vn 0 0 1
vn -1 0 0
vn 0 0 -1
vn 1 0 0
vn 0 1 0
vn 0 -1 0

g Cube (7)
usemtl MetricsProbuilder
f 3/3/1 4/4/1 2/2/1 1/1/1
f 4/7/2 6/8/2 5/6/2 2/5/2
f 6/10/3 8/3/3 7/1/3 5/9/3
f 8/13/4 3/14/4 1/12/4 7/11/4
f 8/17/5 6/18/5 4/16/5 3/15/5
f 1/15/6 2/20/6 5/19/6 7/17/6

