# ProBuilder 4.0.4
# https://unity3d.com/unity/features/worldbuilding/probuilder
# 16/05/2019 10:12:33

mtllib ./Cube_(62).mtl
o Cube (62)

g Cube (62)
v -301 75 2
v -303 75 2
v -301 90 2
v -303 90 2
v -303 75 -3
v -303 90 -3
v -301 75 -3
v -301 90 -3

vt 2 -28
vt 0 -28
vt 2 -13
vt 0 -13
vt -3 -28
vt -3 -13
vt -2 -28
vt -2 -13
vt 3 -28
vt 3 -13
vt -2 2
vt 0 2
vt -2 -3
vt 0 -3
vt 2 -3
vt 2 2

vn 0 0 1
vn -1 0 0
vn 0 0 -1
vn 1 0 0
vn 0 1 0
vn 0 -1 0

g Cube (62)
usemtl MetricsProbuilder
f 3/3/1 4/4/1 2/2/1 1/1/1
f 4/3/2 6/6/2 5/5/2 2/1/2
f 6/4/3 8/8/3 7/7/3 5/2/3
f 8/10/4 3/8/4 1/7/4 7/9/4
f 8/13/5 6/14/5 4/12/5 3/11/5
f 1/16/6 2/12/6 5/14/6 7/15/6

