# ProBuilder 4.0.4
# https://unity3d.com/unity/features/worldbuilding/probuilder
# 16/05/2019 10:12:33

mtllib ./Cube_(30).mtl
o Cube (30)

g Cube (30)
v -200 68 0
v -210 68 0
v -200 70 0
v -210 70 0
v -210 68 -3
v -210 70 -3
v -200 68 -3
v -200 70 -3

vt 0 -1
vt -10 -1
vt 0 1
vt -10 1
vt -3 -1
vt -3 1
vt 10 -1
vt 10 1
vt 3 -1
vt 3 1
vt 0 0
vt 10 0
vt 0 -3
vt 10 -3
vt -10 -3
vt -10 0

vn 0 0 1
vn -1 0 0
vn 0 0 -1
vn 1 0 0
vn 0 1 0
vn 0 -1 0

g Cube (30)
usemtl MetricsProbuilder
f 3/3/1 4/4/1 2/2/1 1/1/1
f 4/3/2 6/6/2 5/5/2 2/1/2
f 6/8/3 8/3/3 7/1/3 5/7/3
f 8/10/4 3/3/4 1/1/4 7/9/4
f 8/13/5 6/14/5 4/12/5 3/11/5
f 1/11/6 2/16/6 5/15/6 7/13/6

