# ProBuilder 4.0.4
# https://unity3d.com/unity/features/worldbuilding/probuilder
# 16/05/2019 10:12:33

mtllib ./Cube_(1).mtl
o Cube (1)

g Cube (1)
v 17 -1 3.75
v 16 -1 3.75
v 16 8 3.75
v 17 8.5 3.75
v 15 -1 3.75
v 15 7.5 3.75
v 15 16 3.75
v 16 17 3.75
v 17 18 3.75
v 15 -1 0.625
v 14.33986 7.5 0.625
v 15 -1 -2.5
v 15 7.5 -2.5
v 15 15.14387 -2.5
v 15 14.64511 0.625
v 16 -1 -2.5
v 16 8 -3.276363
v 17 -1 -2.5
v 17 8.5 -2.5
v 17 17.5298 -2.5
v 16 17 -2.5
v 17 -1 0.625
v 17 8.5 0.625
v 17 18 0.625
v 16 17.48306 0.625
v 16 -1 0.625

vt 1 3
vt 0 3
vt 0 12
vt 1 12.5
vt -1 3
vt -1 11.5
vt -1 20
vt 0 21
vt 1 22
vt 3.750212 2.996798
vt 0.6252125 2.996796
vt 0.6253528 11.49465
vt 3.750212 11.49675
vt -2.499788 2.996794
vt -2.499788 11.49675
vt -2.499788 19.14058
vt 0.6252125 18.64183
vt 3.750212 19.99671
vt 0.9056231 2.989016
vt -0.09367462 2.989177
vt -0.1227648 11.98574
vt 0.9056231 11.48894
vt -1.092972 2.989339
vt -1.092972 12.48925
vt -1.092972 21.51896
vt -0.09367462 20.98901
vt 0.9056231 19.13274
vt 2.5 3
vt -0.625 3
vt -0.625 12.5
vt 2.5 12.5
vt -3.75 3
vt -3.75 12.5
vt -3.75 22
vt -0.625 22
vt 2.5 21.5298
vt 3.724566 16.80375
vt 3.74889 15.3905
vt 0.6248151 15.69113
vt 0.6004905 16.75179
vt 3.773215 13.97725
vt 0.6491397 12.93634
vt -2.474936 13.24843
vt -2.49926 15.28658
vt -2.523585 16.35663
vt 1 -2.5
vt 0 -2.5
vt 0 0.625
vt 1 0.625
vt -1 -2.5
vt -1 0.625
vt -1 3.75
vt 0 3.75
vt 1 3.75

vn 0 0 1
vn -0.9877027 -0.03871535 0.1033422
vn -0.9969977 -0.0774307 0
vn -0.9784077 0 0.2066845
vn -0.9877976 -0.03788425 -0.1030452
vn -1 0 0
vn -0.9755952 -0.0757685 -0.2060903
vn -0.9784077 0 -0.2066844
vn -0.9870297 0.04599455 -0.09600134
vn -0.9956518 0.09198909 0.01468176
vn -0.9872172 0.0450144 0.1029226
vn -0.9744345 0.09002881 0.2058451
vn 0 0 -1
vn -0.2949425 -0.03469912 -0.9022498
vn -0.5898849 -0.06939823 -0.8044996
vn 0 -0.08594343 -0.9963
vn 0.3066221 -0.04297172 -0.8930967
vn 0.6132442 0 -0.7898933
vn 0.2949425 0.03469912 -0.9022498
vn 0.5898849 0.06939823 -0.8044996
vn -0.1575301 0.08487035 -0.9838604
vn -0.3853872 0.04243518 -0.8868768
vn -0.6132442 0 -0.7898933
vn 1 0 0
vn -0.7071068 0.7071068 0
vn -0.5810257 0.7935871 0.06801964
vn -0.4549447 0.8800675 0.1360393
vn -0.7029203 0.7029203 0.1086562
vn -0.8182196 0.5159311 -0.01698058
vn -0.9335189 0.328942 -0.1426173
vn -0.9098845 0.4024246 0.01208963
vn -0.8778511 0.4729478 0.07548402
vn -0.9419178 0.3319015 -0.05130475
vn -0.4638475 0.8755168 -0.1353359
vn -0.4595067 0.8780061 -0.1339096
vn -0.4551659 0.8804954 -0.1324833
vn 0 -1 0

g Cube (1)
usemtl MetricsProbuilder
f 4/4/1 3/3/1 2/2/1 1/1/1
f 3/3/1 6/6/1 5/5/1 2/2/1
f 8/8/1 7/7/1 6/6/1 3/3/1
f 9/9/1 8/8/1 3/3/1 4/4/1
f 6/13/4 11/12/2 10/11/3 5/10/2
f 11/12/7 13/15/5 12/14/6 10/11/5
f 15/17/10 14/16/9 13/15/8 11/12/9
f 7/18/6 15/17/11 11/12/12 6/13/11
f 12/19/13 13/22/14 17/21/15 16/20/14
f 16/20/16 17/21/17 19/24/18 18/23/17
f 17/21/20 21/26/19 20/25/13 19/24/19
f 13/22/23 14/27/22 21/26/21 17/21/22
f 18/28/24 19/31/24 23/30/24 22/29/24
f 22/29/24 23/30/24 4/33/24 1/32/24
f 23/30/24 24/35/24 9/34/24 4/33/24
f 19/31/24 20/36/24 24/35/24 23/30/24
f 8/38/26 9/37/25 24/40/26 25/39/27
f 7/41/29 8/38/28 25/39/29 15/42/30
f 15/42/31 25/39/33 21/44/31 14/43/32
f 25/39/35 24/40/36 20/45/35 21/44/34
f 18/46/37 22/49/37 26/48/37 16/47/37
f 16/47/37 26/48/37 10/51/37 12/50/37
f 26/48/37 2/53/37 5/52/37 10/51/37
f 22/49/37 1/54/37 2/53/37 26/48/37

