# ProBuilder 4.0.4
# https://unity3d.com/unity/features/worldbuilding/probuilder
# 16/05/2019 10:12:33

mtllib ./Cube_(8).mtl
o Cube (8)

g Cube (8)
v -55 -5 3.75
v -59 -5 3.75
v -55 29 3.75
v -59 29 3.75
v -59 -5 -2.5
v -59 29 -2.5
v -55 -5 -2.5
v -55 29 -2.5

vt 0 -19
vt -4 -19
vt 0 15
vt -4 15
vt 3.75 -19
vt -2.5 -19
vt 3.75 15
vt -2.5 15
vt 4 -19
vt 4 15
vt 2.5 -19
vt -3.75 -19
vt 2.5 15
vt -3.75 15
vt 0 3.75
vt 4 3.75
vt 0 -2.5
vt 4 -2.5
vt -4 -2.5
vt -4 3.75

vn 0 0 1
vn -1 0 0
vn 0 0 -1
vn 1 0 0
vn 0 1 0
vn 0 -1 0

g Cube (8)
usemtl MetricsProbuilder
f 3/3/1 4/4/1 2/2/1 1/1/1
f 4/7/2 6/8/2 5/6/2 2/5/2
f 6/10/3 8/3/3 7/1/3 5/9/3
f 8/13/4 3/14/4 1/12/4 7/11/4
f 8/17/5 6/18/5 4/16/5 3/15/5
f 1/15/6 2/20/6 5/19/6 7/17/6

